<svg width="414" height="304" viewBox="0 0 414 304" fill="none" xmlns="http://www.w3.org/2000/svg">
	<g opacity="0.6">
		<path d="M195.584 103.167H190.633V108.119H195.584V103.167Z" fill="#5A66F9" fill-opacity="0.1" />
		<path d="M195.584 93.8136H190.633V98.7651H195.584V93.8136Z" fill="#5A66F9" fill-opacity="0.1" />
		<path d="M195.584 84.1846H190.633V89.1361H195.584V84.1846Z" fill="#5A66F9" fill-opacity="0.1" />
		<path d="M195.584 75.1059H190.633V80.0574H195.584V75.1059Z" fill="#5A66F9" fill-opacity="0.1" />
		<path d="M195.584 65.752H190.633V70.7035H195.584V65.752Z" fill="#5A66F9" fill-opacity="0.1" />
		<path d="M195.584 56.1231H190.633V61.0746H195.584V56.1231Z" fill="#5A66F9" fill-opacity="0.1" />
		<path d="M195.584 47.0443H190.633V51.9958H195.584V47.0443Z" fill="#5A66F9" fill-opacity="0.1" />
		<path d="M195.584 37.6905H190.633V42.642H195.584V37.6905Z" fill="#5A66F9" fill-opacity="0.1" />
		<path d="M195.584 28.0615H190.633V33.013H195.584V28.0615Z" fill="#5A66F9" fill-opacity="0.1" />
		<path d="M205.212 103.167H200.26V108.119H205.212V103.167Z" fill="#5A66F9" fill-opacity="0.1" />
		<path d="M205.212 93.8136H200.26V98.7651H205.212V93.8136Z" fill="#5A66F9" fill-opacity="0.1" />
		<path d="M205.212 84.1846H200.26V89.1361H205.212V84.1846Z" fill="#5A66F9" fill-opacity="0.1" />
		<path d="M205.212 75.1059H200.26V80.0574H205.212V75.1059Z" fill="#5A66F9" fill-opacity="0.1" />
		<path d="M205.212 65.752H200.26V70.7035H205.212V65.752Z" fill="#5A66F9" fill-opacity="0.1" />
		<path d="M205.212 56.1231H200.26V61.0746H205.212V56.1231Z" fill="#5A66F9" fill-opacity="0.1" />
		<path d="M205.212 47.0443H200.26V51.9958H205.212V47.0443Z" fill="#5A66F9" fill-opacity="0.1" />
		<path d="M205.212 37.6905H200.26V42.642H205.212V37.6905Z" fill="#5A66F9" fill-opacity="0.1" />
		<path d="M205.212 28.0615H200.26V33.013H205.212V28.0615Z" fill="#5A66F9" fill-opacity="0.1" />
		<path d="M205.212 18.7077H200.26V23.6592H205.212V18.7077Z" fill="#5A66F9" fill-opacity="0.1" />
		<path d="M205.212 9.35385H200.26V14.3053H205.212V9.35385Z" fill="#5A66F9" fill-opacity="0.1" />
		<path d="M214.84 103.167H209.888V108.119H214.84V103.167Z" fill="#5A66F9" fill-opacity="0.1" />
		<path d="M214.84 93.8136H209.888V98.7651H214.84V93.8136Z" fill="#5A66F9" fill-opacity="0.1" />
		<path d="M214.84 84.1846H209.888V89.1361H214.84V84.1846Z" fill="#5A66F9" fill-opacity="0.1" />
		<path d="M214.84 75.1059H209.888V80.0574H214.84V75.1059Z" fill="#5A66F9" fill-opacity="0.1" />
		<path d="M214.84 65.752H209.888V70.7035H214.84V65.752Z" fill="#5A66F9" fill-opacity="0.1" />
		<path d="M214.84 56.1231H209.888V61.0746H214.84V56.1231Z" fill="#5A66F9" fill-opacity="0.1" />
		<path d="M214.84 47.0443H209.888V51.9958H214.84V47.0443Z" fill="#5A66F9" fill-opacity="0.1" />
		<path d="M214.84 37.6905H209.888V42.642H214.84V37.6905Z" fill="#5A66F9" fill-opacity="0.1" />
		<path d="M214.84 28.0615H209.888V33.013H214.84V28.0615Z" fill="#5A66F9" fill-opacity="0.1" />
		<path d="M214.84 18.7077H209.888V23.6592H214.84V18.7077Z" fill="#5A66F9" fill-opacity="0.1" />
		<path d="M214.84 9.35385H209.888V14.3053H214.84V9.35385Z" fill="#5A66F9" fill-opacity="0.1" />
		<path d="M214.84 0H209.888V4.95149H214.84V0Z" fill="#5A66F9" fill-opacity="0.1" />
		<path d="M224.743 103.167H219.791V108.119H224.743V103.167Z" fill="#5A66F9" fill-opacity="0.1" />
		<path d="M224.743 93.8136H219.791V98.7651H224.743V93.8136Z" fill="#5A66F9" fill-opacity="0.1" />
		<path d="M224.743 84.1846H219.791V89.1361H224.743V84.1846Z" fill="#5A66F9" fill-opacity="0.1" />
		<path d="M224.743 75.1059H219.791V80.0574H224.743V75.1059Z" fill="#5A66F9" fill-opacity="0.1" />
		<path d="M224.743 65.752H219.791V70.7035H224.743V65.752Z" fill="#5A66F9" fill-opacity="0.1" />
		<path d="M224.743 56.1231H219.791V61.0746H224.743V56.1231Z" fill="#5A66F9" fill-opacity="0.1" />
		<path d="M224.743 47.0443H219.791V51.9958H224.743V47.0443Z" fill="#5A66F9" fill-opacity="0.1" />
		<path d="M224.743 37.6905H219.791V42.642H224.743V37.6905Z" fill="#5A66F9" fill-opacity="0.1" />
		<path d="M224.743 28.0615H219.791V33.013H224.743V28.0615Z" fill="#5A66F9" fill-opacity="0.1" />
		<path d="M224.743 18.7077H219.791V23.6592H224.743V18.7077Z" fill="#5A66F9" fill-opacity="0.1" />
		<path d="M234.371 103.167H229.419V108.119H234.371V103.167Z" fill="#5A66F9" fill-opacity="0.1" />
		<path d="M234.371 93.8136H229.419V98.7651H234.371V93.8136Z" fill="#5A66F9" fill-opacity="0.1" />
		<path d="M234.371 84.1846H229.419V89.1361H234.371V84.1846Z" fill="#5A66F9" fill-opacity="0.1" />
		<path d="M234.371 75.1059H229.419V80.0574H234.371V75.1059Z" fill="#5A66F9" fill-opacity="0.1" />
		<path d="M234.371 65.752H229.419V70.7035H234.371V65.752Z" fill="#5A66F9" fill-opacity="0.1" />
		<path d="M234.371 56.1231H229.419V61.0746H234.371V56.1231Z" fill="#5A66F9" fill-opacity="0.1" />
		<path d="M234.371 47.0443H229.419V51.9958H234.371V47.0443Z" fill="#5A66F9" fill-opacity="0.1" />
		<path d="M234.371 37.6905H229.419V42.642H234.371V37.6905Z" fill="#5A66F9" fill-opacity="0.1" />
		<path d="M234.371 28.0615H229.419V33.013H234.371V28.0615Z" fill="#5A66F9" fill-opacity="0.1" />
		<path d="M243.999 103.167H239.047V108.119H243.999V103.167Z" fill="#5A66F9" fill-opacity="0.1" />
		<path d="M243.999 93.8136H239.047V98.7651H243.999V93.8136Z" fill="#5A66F9" fill-opacity="0.1" />
		<path d="M243.999 84.1846H239.047V89.1361H243.999V84.1846Z" fill="#5A66F9" fill-opacity="0.1" />
		<path d="M243.999 75.1059H239.047V80.0574H243.999V75.1059Z" fill="#5A66F9" fill-opacity="0.1" />
		<path d="M243.999 65.752H239.047V70.7035H243.999V65.752Z" fill="#5A66F9" fill-opacity="0.1" />
		<path d="M243.999 56.1231H239.047V61.0746H243.999V56.1231Z" fill="#5A66F9" fill-opacity="0.1" />
		<path d="M243.999 47.0443H239.047V51.9958H243.999V47.0443Z" fill="#5A66F9" fill-opacity="0.1" />
		<path d="M243.999 37.6905H239.047V42.642H243.999V37.6905Z" fill="#5A66F9" fill-opacity="0.1" />
		<path d="M243.999 28.0615H239.047V33.013H243.999V28.0615Z" fill="#5A66F9" fill-opacity="0.1" />
		<path d="M243.999 18.7077H239.047V23.6592H243.999V18.7077Z" fill="#5A66F9" fill-opacity="0.1" />
		<path d="M243.999 9.35385H239.047V14.3053H243.999V9.35385Z" fill="#5A66F9" fill-opacity="0.1" />
		<path d="M253.902 103.167H248.95V108.119H253.902V103.167Z" fill="#5A66F9" fill-opacity="0.1" />
		<path d="M253.902 93.8136H248.95V98.7651H253.902V93.8136Z" fill="#5A66F9" fill-opacity="0.1" />
		<path d="M253.902 84.1846H248.95V89.1361H253.902V84.1846Z" fill="#5A66F9" fill-opacity="0.1" />
		<path d="M253.902 75.1059H248.95V80.0574H253.902V75.1059Z" fill="#5A66F9" fill-opacity="0.1" />
		<path d="M253.902 65.752H248.95V70.7035H253.902V65.752Z" fill="#5A66F9" fill-opacity="0.1" />
		<path d="M253.902 56.1231H248.95V61.0746H253.902V56.1231Z" fill="#5A66F9" fill-opacity="0.1" />
		<path d="M253.902 47.0443H248.95V51.9958H253.902V47.0443Z" fill="#5A66F9" fill-opacity="0.1" />
		<path d="M253.902 37.6905H248.95V42.642H253.902V37.6905Z" fill="#5A66F9" fill-opacity="0.1" />
		<path d="M263.53 103.167H258.578V108.119H263.53V103.167Z" fill="#5A66F9" fill-opacity="0.1" />
		<path d="M263.53 93.8136H258.578V98.7651H263.53V93.8136Z" fill="#5A66F9" fill-opacity="0.1" />
		<path d="M263.53 84.1846H258.578V89.1361H263.53V84.1846Z" fill="#5A66F9" fill-opacity="0.1" />
		<path d="M263.53 75.1059H258.578V80.0574H263.53V75.1059Z" fill="#5A66F9" fill-opacity="0.1" />
		<path d="M263.53 65.752H258.578V70.7035H263.53V65.752Z" fill="#5A66F9" fill-opacity="0.1" />
		<path d="M263.53 56.1231H258.578V61.0746H263.53V56.1231Z" fill="#5A66F9" fill-opacity="0.1" />
		<path d="M263.53 47.0443H258.578V51.9958H263.53V47.0443Z" fill="#5A66F9" fill-opacity="0.1" />
		<path d="M263.53 37.6905H258.578V42.642H263.53V37.6905Z" fill="#5A66F9" fill-opacity="0.1" />
		<path d="M263.53 28.0615H258.578V33.013H263.53V28.0615Z" fill="#5A66F9" fill-opacity="0.1" />
		<path d="M263.53 18.7077H258.578V23.6592H263.53V18.7077Z" fill="#5A66F9" fill-opacity="0.1" />
		<path d="M273.433 103.167H268.481V108.119H273.433V103.167Z" fill="#5A66F9" fill-opacity="0.1" />
		<path d="M273.433 93.8136H268.481V98.7651H273.433V93.8136Z" fill="#5A66F9" fill-opacity="0.1" />
		<path d="M273.433 84.1846H268.481V89.1361H273.433V84.1846Z" fill="#5A66F9" fill-opacity="0.1" />
		<path d="M273.433 75.1059H268.481V80.0574H273.433V75.1059Z" fill="#5A66F9" fill-opacity="0.1" />
		<path d="M273.433 65.752H268.481V70.7035H273.433V65.752Z" fill="#5A66F9" fill-opacity="0.1" />
		<path d="M273.433 56.1231H268.481V61.0746H273.433V56.1231Z" fill="#5A66F9" fill-opacity="0.1" />
		<path d="M273.433 47.0443H268.481V51.9958H273.433V47.0443Z" fill="#5A66F9" fill-opacity="0.1" />
		<path d="M273.433 37.6905H268.481V42.642H273.433V37.6905Z" fill="#5A66F9" fill-opacity="0.1" />
		<path d="M273.433 28.0615H268.481V33.013H273.433V28.0615Z" fill="#5A66F9" fill-opacity="0.1" />
		<path d="M273.433 18.7077H268.481V23.6592H273.433V18.7077Z" fill="#5A66F9" fill-opacity="0.1" />
		<path d="M273.433 9.35385H268.481V14.3053H273.433V9.35385Z" fill="#5A66F9" fill-opacity="0.1" />
		<path d="M273.433 0H268.481V4.95149H273.433V0Z" fill="#5A66F9" fill-opacity="0.1" />
		<path d="M282.785 103.167H277.834V108.119H282.785V103.167Z" fill="#5A66F9" fill-opacity="0.1" />
		<path d="M282.785 93.8136H277.834V98.7651H282.785V93.8136Z" fill="#5A66F9" fill-opacity="0.1" />
		<path d="M282.785 84.1846H277.834V89.1361H282.785V84.1846Z" fill="#5A66F9" fill-opacity="0.1" />
		<path d="M282.785 75.1059H277.834V80.0574H282.785V75.1059Z" fill="#5A66F9" fill-opacity="0.1" />
		<path d="M282.785 65.752H277.834V70.7035H282.785V65.752Z" fill="#5A66F9" fill-opacity="0.1" />
		<path d="M282.785 56.1231H277.834V61.0746H282.785V56.1231Z" fill="#5A66F9" fill-opacity="0.1" />
		<path d="M282.785 47.0443H277.834V51.9958H282.785V47.0443Z" fill="#5A66F9" fill-opacity="0.1" />
		<path d="M282.785 37.6905H277.834V42.642H282.785V37.6905Z" fill="#5A66F9" fill-opacity="0.1" />
		<path d="M282.785 28.0615H277.834V33.013H282.785V28.0615Z" fill="#5A66F9" fill-opacity="0.1" />
		<path d="M282.785 18.7077H277.834V23.6592H282.785V18.7077Z" fill="#5A66F9" fill-opacity="0.1" />
		<path d="M282.785 9.35385H277.834V14.3053H282.785V9.35385Z" fill="#5A66F9" fill-opacity="0.1" />
		<path d="M282.785 0H277.834V4.95149H282.785V0Z" fill="#5A66F9" fill-opacity="0.1" />
		<path d="M292.688 103.167H287.737V108.119H292.688V103.167Z" fill="#5A66F9" fill-opacity="0.1" />
		<path d="M292.688 93.8136H287.737V98.7651H292.688V93.8136Z" fill="#5A66F9" fill-opacity="0.1" />
		<path d="M292.688 84.1846H287.737V89.1361H292.688V84.1846Z" fill="#5A66F9" fill-opacity="0.1" />
		<path d="M292.688 75.1059H287.737V80.0574H292.688V75.1059Z" fill="#5A66F9" fill-opacity="0.1" />
		<path d="M292.688 65.752H287.737V70.7035H292.688V65.752Z" fill="#5A66F9" fill-opacity="0.1" />
		<path d="M292.688 56.1231H287.737V61.0746H292.688V56.1231Z" fill="#5A66F9" fill-opacity="0.1" />
		<path d="M292.688 47.0443H287.737V51.9958H292.688V47.0443Z" fill="#5A66F9" fill-opacity="0.1" />
		<path d="M292.688 37.6905H287.737V42.642H292.688V37.6905Z" fill="#5A66F9" fill-opacity="0.1" />
		<path d="M292.688 28.0615H287.737V33.013H292.688V28.0615Z" fill="#5A66F9" fill-opacity="0.1" />
		<path d="M292.688 18.7077H287.737V23.6592H292.688V18.7077Z" fill="#5A66F9" fill-opacity="0.1" />
		<path d="M302.591 103.167H297.64V108.119H302.591V103.167Z" fill="#5A66F9" fill-opacity="0.1" />
		<path d="M302.591 93.8136H297.64V98.7651H302.591V93.8136Z" fill="#5A66F9" fill-opacity="0.1" />
		<path d="M302.591 84.1846H297.64V89.1361H302.591V84.1846Z" fill="#5A66F9" fill-opacity="0.1" />
		<path d="M302.591 75.1059H297.64V80.0574H302.591V75.1059Z" fill="#5A66F9" fill-opacity="0.1" />
		<path d="M302.591 65.752H297.64V70.7035H302.591V65.752Z" fill="#5A66F9" fill-opacity="0.1" />
		<path d="M302.591 56.1231H297.64V61.0746H302.591V56.1231Z" fill="#5A66F9" fill-opacity="0.1" />
		<path d="M302.591 47.0443H297.64V51.9958H302.591V47.0443Z" fill="#5A66F9" fill-opacity="0.1" />
		<path d="M302.591 37.6905H297.64V42.642H302.591V37.6905Z" fill="#5A66F9" fill-opacity="0.1" />
		<path d="M302.591 28.0615H297.64V33.013H302.591V28.0615Z" fill="#5A66F9" fill-opacity="0.1" />
		<path d="M311.944 103.167H306.993V108.119H311.944V103.167Z" fill="#5A66F9" fill-opacity="0.1" />
		<path d="M311.944 93.8136H306.993V98.7651H311.944V93.8136Z" fill="#5A66F9" fill-opacity="0.1" />
		<path d="M311.944 84.1846H306.993V89.1361H311.944V84.1846Z" fill="#5A66F9" fill-opacity="0.1" />
		<path d="M311.944 75.1059H306.993V80.0574H311.944V75.1059Z" fill="#5A66F9" fill-opacity="0.1" />
		<path d="M311.944 65.752H306.993V70.7035H311.944V65.752Z" fill="#5A66F9" fill-opacity="0.1" />
		<path d="M311.944 56.1231H306.993V61.0746H311.944V56.1231Z" fill="#5A66F9" fill-opacity="0.1" />
		<path d="M311.944 47.0443H306.993V51.9958H311.944V47.0443Z" fill="#5A66F9" fill-opacity="0.1" />
		<path d="M311.944 37.6905H306.993V42.642H311.944V37.6905Z" fill="#5A66F9" fill-opacity="0.1" />
		<path d="M321.847 103.167H316.896V108.119H321.847V103.167Z" fill="#5A66F9" fill-opacity="0.1" />
		<path d="M321.847 93.8136H316.896V98.7651H321.847V93.8136Z" fill="#5A66F9" fill-opacity="0.1" />
		<path d="M321.847 84.1846H316.896V89.1361H321.847V84.1846Z" fill="#5A66F9" fill-opacity="0.1" />
		<path d="M321.847 75.1059H316.896V80.0574H321.847V75.1059Z" fill="#5A66F9" fill-opacity="0.1" />
		<path d="M321.847 65.752H316.896V70.7035H321.847V65.752Z" fill="#5A66F9" fill-opacity="0.1" />
		<path d="M321.847 56.1231H316.896V61.0746H321.847V56.1231Z" fill="#5A66F9" fill-opacity="0.1" />
		<path d="M321.847 47.0443H316.896V51.9958H321.847V47.0443Z" fill="#5A66F9" fill-opacity="0.1" />
		<path d="M321.847 37.6905H316.896V42.642H321.847V37.6905Z" fill="#5A66F9" fill-opacity="0.1" />
		<path d="M321.847 28.0615H316.896V33.013H321.847V28.0615Z" fill="#5A66F9" fill-opacity="0.1" />
		<path d="M321.847 18.7077H316.896V23.6592H321.847V18.7077Z" fill="#5A66F9" fill-opacity="0.1" />
		<path d="M331.475 103.167H326.524V108.119H331.475V103.167Z" fill="#5A66F9" fill-opacity="0.1" />
		<path d="M331.475 93.8136H326.524V98.7651H331.475V93.8136Z" fill="#5A66F9" fill-opacity="0.1" />
		<path d="M331.475 84.1846H326.524V89.1361H331.475V84.1846Z" fill="#5A66F9" fill-opacity="0.1" />
		<path d="M331.475 75.1059H326.524V80.0574H331.475V75.1059Z" fill="#5A66F9" fill-opacity="0.1" />
		<path d="M331.475 65.752H326.524V70.7035H331.475V65.752Z" fill="#5A66F9" fill-opacity="0.1" />
		<path d="M331.475 56.1231H326.524V61.0746H331.475V56.1231Z" fill="#5A66F9" fill-opacity="0.1" />
		<path d="M331.475 47.0443H326.524V51.9958H331.475V47.0443Z" fill="#5A66F9" fill-opacity="0.1" />
		<path
			d="M102 207C158.407 207 204 161.021 204 104.5C204 47.9786 158.407 2 102 2C45.5931 2 0 47.6857 0 104.5C0 161.021 45.5931 207 102 207Z"
			fill="white" fill-opacity="0.1" />
		<path
			d="M109.758 286.668C130.389 287.218 155.147 286.668 172.477 286.393C189.807 286.668 214.565 287.218 235.196 286.668C220.892 278.414 213.189 265.484 209.338 253.379C207.688 248.427 206.862 243.475 206.587 239.348H138.367C138.092 243.475 136.991 248.427 135.616 253.379C132.04 264.934 124.338 278.414 109.758 286.668Z"
			fill="url(#paint0_linear_18625_202377)" />
		<path
			d="M240.973 288.318H102.056C101.231 288.318 100.68 287.768 100.68 286.943C100.68 286.118 101.231 285.567 102.056 285.567H240.973C241.798 285.567 242.348 286.118 242.348 286.943C242.348 287.768 241.798 288.318 240.973 288.318Z"
			fill="#3946EE" />
		<path opacity="0.2"
			d="M64.9196 252.829H138.917C137.266 247.877 136.441 242.925 136.166 238.798H67.9455C67.3954 243.2 66.5701 248.152 64.9196 252.829Z"
			fill="#98A0FF" />
		<path
			d="M109.758 287.493C109.208 287.493 108.933 287.218 108.658 286.668C108.383 286.118 108.383 285.292 109.208 284.742C124.338 276.214 131.215 262.458 134.516 252.279C136.166 246.776 136.991 242.1 137.266 238.798C137.266 237.973 137.817 237.423 138.642 237.423H207.413C208.238 237.423 208.788 237.973 208.788 238.798C209.063 242.1 209.613 247.052 211.539 252.279C213.189 258.331 216.215 264.384 220.066 269.886C220.617 270.436 220.342 271.262 219.791 271.812C219.241 272.362 218.416 272.087 217.866 271.537C213.74 265.759 210.714 259.432 209.063 253.104C207.413 248.152 206.587 243.475 206.312 240.174H139.742C139.467 243.75 138.642 247.877 136.991 253.104C133.69 263.833 126.263 278.139 110.583 287.218C110.308 287.493 110.033 287.493 109.758 287.493Z"
			fill="#3946EE" />
		<path
			d="M300.116 58.324V236.872C300.116 241.274 296.54 244.576 292.413 244.576H50.6153C46.489 244.576 42.913 240.999 42.913 236.872V58.324C42.913 54.1973 46.489 50.6208 50.6153 50.6208H292.413C296.54 50.6208 300.116 53.9222 300.116 58.324Z"
			fill="#E9EAFF" />
		<path
			d="M292.413 245.951H50.6153C45.6638 245.951 41.5375 241.824 41.5375 236.872V58.324C41.5375 53.3719 45.6638 49.2452 50.6153 49.2452H292.413C297.365 49.2452 301.491 53.3719 301.491 58.324V236.872C301.491 241.824 297.365 245.951 292.413 245.951ZM50.6153 51.9964C47.3143 51.9964 44.2884 55.0226 44.2884 58.324V236.872C44.2884 240.174 47.3143 243.2 50.6153 243.2H292.413C295.714 243.2 298.74 240.449 298.74 236.872V58.324C298.74 54.7475 295.989 51.9964 292.413 51.9964H50.6153Z"
			fill="#3946EE" />
		<path
			d="M204.662 210.461H42.913C42.0877 210.461 41.5375 209.911 41.5375 209.086C41.5375 208.261 42.0877 207.71 42.913 207.71H204.387C205.212 207.71 205.762 208.261 205.762 209.086C205.762 209.911 205.212 210.461 204.662 210.461Z"
			fill="#3946EE" />
		<path
			d="M213.189 210.461H211.264C210.439 210.461 209.888 209.911 209.888 209.086C209.888 208.261 210.439 207.71 211.264 207.71H213.189C214.015 207.71 214.565 208.261 214.565 209.086C214.565 209.911 214.015 210.461 213.189 210.461Z"
			fill="#3946EE" />
		<path
			d="M171.652 232.471C175.228 232.471 177.979 229.719 177.979 226.143C177.979 222.566 175.228 219.815 171.652 219.815C168.076 219.815 165.325 222.566 165.325 226.143C165.325 229.719 168.076 232.471 171.652 232.471Z"
			fill="#5A66F9" fill-opacity="0.2" />
		<path
			d="M57.7674 65.4764C59.1429 65.4764 60.2432 64.3761 60.2432 63.0006C60.2432 61.6252 59.1429 60.5249 57.7674 60.5249C56.392 60.5249 55.2917 61.6252 55.2917 63.0006C55.2917 64.3761 56.392 65.4764 57.7674 65.4764Z"
			fill="#5A66F9" fill-opacity="0.2" />
		<path
			d="M65.4698 65.4764C66.8452 65.4764 67.9455 64.3761 67.9455 63.0006C67.9455 61.6252 66.8452 60.5249 65.4698 60.5249C64.0944 60.5249 62.994 61.6252 62.994 63.0006C62.994 64.3761 64.0944 65.4764 65.4698 65.4764Z"
			fill="#5A66F9" fill-opacity="0.2" />
		<path
			d="M73.4472 65.4764C74.8226 65.4764 75.9229 64.3761 75.9229 63.0006C75.9229 61.6252 74.8226 60.5249 73.4472 60.5249C72.0718 60.5249 70.9714 61.6252 70.9714 63.0006C70.9714 64.3761 72.0718 65.4764 73.4472 65.4764Z"
			fill="#5A66F9" fill-opacity="0.2" />
		<path d="M288.012 75.1059H100.955H62.994H49.515V205.51H100.955V77.0317H288.012V75.1059Z" fill="#5A66F9"
			fill-opacity="0.1" />
		<path
			d="M376.314 128.203C375.763 132.054 374.938 135.631 373.288 139.207C369.161 148.836 360.909 156.264 351.556 159.841C345.779 162.042 339.452 162.867 333.126 162.042C311.944 159.291 296.815 140.033 299.29 118.574C302.041 97.3901 321.297 82.2588 342.478 84.7348C363.935 87.486 378.789 107.019 376.314 128.203Z"
			fill="#D790F0" />
		<path
			d="M338.077 163.692C336.427 163.692 334.776 163.692 332.851 163.417C311.119 160.666 295.439 140.583 297.915 118.574C299.015 110.32 302.316 103.167 307.543 97.39C308.093 96.8398 308.918 96.8398 309.468 97.39C310.019 97.9403 310.019 98.7656 309.468 99.3158C304.792 104.543 301.491 111.421 300.666 119.124C298.19 139.482 313.045 158.465 333.126 160.941C339.177 161.767 345.229 160.941 351.006 158.74C360.359 155.164 368.061 147.736 371.912 138.657C373.288 135.631 374.113 132.329 374.938 128.203C377.414 107.844 362.835 89.1366 342.478 86.3855C341.103 86.1104 340.003 86.1104 338.627 86.1104C337.802 86.1104 337.252 85.5602 337.252 84.7348C337.252 83.9095 337.802 83.3593 338.627 83.3593C340.003 83.3593 341.378 83.3593 343.029 83.6344C365.035 86.3855 380.715 106.744 377.964 128.478C377.414 133.155 376.314 136.456 374.938 139.757C370.812 149.386 362.284 157.365 352.381 161.216C347.705 162.867 343.029 163.692 338.077 163.692Z"
			fill="#3946EE" />
		<path
			d="M316.07 92.4373C315.52 92.4373 315.245 92.1622 314.97 91.8871C314.42 91.3369 314.695 90.5117 315.245 89.9615C317.996 88.0359 320.472 86.6605 323.223 85.8353C324.048 85.5602 324.598 85.8353 325.148 86.6605C325.698 87.4858 325.148 88.0359 324.323 88.5861C321.847 89.6864 319.647 90.7868 316.896 92.4373C316.621 92.4373 316.346 92.4373 316.07 92.4373Z"
			fill="#3946EE" />
		<path
			d="M348.53 124.076C347.705 123.526 346.88 122.7 346.33 122.425C347.155 114.997 344.129 107.844 338.077 103.718C332.3 107.844 328.724 114.997 329.825 122.425C329.274 122.976 328.449 123.526 327.349 124.351C325.973 125.452 325.148 127.377 325.698 129.028L327.074 135.081C327.349 136.181 328.724 136.731 329.55 135.906L333.951 132.329C336.151 135.356 340.553 135.356 342.753 132.329L347.155 135.906C347.98 136.731 349.355 136.181 349.631 135.081L351.006 129.028C350.731 127.102 349.906 125.176 348.53 124.076ZM337.802 119.949C335.876 119.949 334.226 118.299 334.226 116.373C334.226 114.447 335.876 112.796 337.802 112.796C339.728 112.796 341.378 114.447 341.378 116.373C341.653 118.299 340.003 119.949 337.802 119.949Z"
			fill="#E9EAFF" />
		<path
			d="M341.653 135.906C340.553 136.456 339.177 136.731 337.802 136.731C336.427 136.731 335.051 136.456 333.951 135.906C333.401 135.631 333.126 135.906 333.126 136.456V140.307C333.126 140.857 333.951 141.408 334.501 140.857L335.601 140.032C335.876 140.032 335.876 140.032 336.152 140.032L337.527 142.783C337.802 143.333 338.627 143.333 338.902 142.783L340.278 140.032C340.278 139.757 340.553 139.757 340.828 140.032L341.653 140.857C342.203 141.408 343.029 140.857 343.029 140.307V136.456C342.478 136.181 341.928 135.906 341.653 135.906Z"
			fill="#E9EAFF" />
		<path
			d="M152.671 85.8349H117.185C116.36 85.8349 115.535 85.2848 115.535 84.1844C115.535 83.0841 116.085 82.5339 117.185 82.5339H152.671C153.496 82.5339 154.322 83.0841 154.322 84.1844C154.322 85.2848 153.496 85.8349 152.671 85.8349Z"
			fill="#5A66F9" fill-opacity="0.2" />
		<path
			d="M107.282 85.8349H105.907C105.082 85.8349 104.256 85.2848 104.256 84.1844C104.256 83.0841 104.807 82.5339 105.907 82.5339H107.282C108.108 82.5339 108.933 83.0841 108.933 84.1844C108.933 85.2848 108.108 85.8349 107.282 85.8349Z"
			fill="#5A66F9" fill-opacity="0.2" />
		<path
			d="M107.282 93.263H105.907C105.082 93.263 104.256 92.7128 104.256 91.6125C104.256 90.5122 104.807 89.962 105.907 89.962H107.282C108.108 89.962 108.933 90.5122 108.933 91.6125C108.933 92.7128 108.108 93.263 107.282 93.263Z"
			fill="#5A66F9" fill-opacity="0.2" />
		<path
			d="M107.282 100.691H105.907C105.082 100.691 104.256 100.141 104.256 99.0405C104.256 97.9402 104.807 97.39 105.907 97.39H107.282C108.108 97.39 108.933 97.9402 108.933 99.0405C108.933 100.141 108.108 100.691 107.282 100.691Z"
			fill="#5A66F9" fill-opacity="0.2" />
		<path
			d="M107.282 108.119H105.907C105.082 108.119 104.256 107.569 104.256 106.469C104.256 105.368 104.807 104.818 105.907 104.818H107.282C108.108 104.818 108.933 105.368 108.933 106.469C108.933 107.569 108.108 108.119 107.282 108.119Z"
			fill="#5A66F9" fill-opacity="0.2" />
		<path
			d="M107.282 115.547H105.907C105.082 115.547 104.256 114.997 104.256 113.897C104.256 112.796 104.807 112.246 105.907 112.246H107.282C108.108 112.246 108.933 112.796 108.933 113.897C108.933 114.997 108.108 115.547 107.282 115.547Z"
			fill="#5A66F9" fill-opacity="0.2" />
		<path
			d="M107.282 122.7H105.907C105.082 122.7 104.256 122.15 104.256 121.05C104.256 119.949 104.807 119.399 105.907 119.399H107.282C108.108 119.399 108.933 119.949 108.933 121.05C108.933 122.15 108.108 122.7 107.282 122.7Z"
			fill="#5A66F9" fill-opacity="0.2" />
		<path
			d="M107.282 130.128H105.907C105.082 130.128 104.256 129.578 104.256 128.478C104.256 127.377 104.807 126.827 105.907 126.827H107.282C108.108 126.827 108.933 127.377 108.933 128.478C108.933 129.578 108.108 130.128 107.282 130.128Z"
			fill="#5A66F9" fill-opacity="0.2" />
		<path
			d="M107.282 137.556H105.907C105.082 137.556 104.256 137.006 104.256 135.906C104.256 134.805 104.807 134.255 105.907 134.255H107.282C108.108 134.255 108.933 134.805 108.933 135.906C108.933 137.006 108.108 137.556 107.282 137.556Z"
			fill="#5A66F9" fill-opacity="0.2" />
		<path
			d="M107.282 144.984H105.907C105.082 144.984 104.256 144.434 104.256 143.334C104.256 142.233 104.807 141.683 105.907 141.683H107.282C108.108 141.683 108.933 142.233 108.933 143.334C108.933 144.434 108.108 144.984 107.282 144.984Z"
			fill="#5A66F9" fill-opacity="0.2" />
		<path
			d="M107.282 152.137H105.907C105.082 152.137 104.256 151.587 104.256 150.487C104.256 149.386 104.807 148.836 105.907 148.836H107.282C108.108 148.836 108.933 149.386 108.933 150.487C108.933 151.587 108.108 152.137 107.282 152.137Z"
			fill="#5A66F9" fill-opacity="0.2" />
		<path
			d="M107.282 159.565H105.907C105.082 159.565 104.256 159.015 104.256 157.915C104.256 157.09 104.807 156.264 105.907 156.264H107.282C108.108 156.264 108.933 156.814 108.933 157.915C108.658 159.015 108.108 159.565 107.282 159.565Z"
			fill="#5A66F9" fill-opacity="0.2" />
		<path
			d="M107.282 166.993H105.907C105.082 166.993 104.256 166.443 104.256 165.343C104.256 164.242 104.807 163.692 105.907 163.692H107.282C108.108 163.692 108.933 164.242 108.933 165.343C108.933 166.443 108.108 166.993 107.282 166.993Z"
			fill="#5A66F9" fill-opacity="0.2" />
		<path
			d="M107.282 174.421H105.907C105.082 174.421 104.256 173.871 104.256 172.771C104.256 171.671 104.807 171.12 105.907 171.12H107.282C108.108 171.12 108.933 171.671 108.933 172.771C108.933 173.871 108.108 174.421 107.282 174.421Z"
			fill="#5A66F9" fill-opacity="0.2" />
		<path
			d="M107.282 181.849H105.907C105.082 181.849 104.256 181.299 104.256 180.199C104.256 179.374 104.807 178.548 105.907 178.548H107.282C108.108 178.548 108.933 179.099 108.933 180.199C108.658 181.299 108.108 181.849 107.282 181.849Z"
			fill="#5A66F9" fill-opacity="0.2" />
		<path
			d="M107.282 189.002H105.907C105.082 189.002 104.256 188.452 104.256 187.352C104.256 186.252 104.807 185.701 105.907 185.701H107.282C108.108 185.701 108.933 186.252 108.933 187.352C108.933 188.452 108.108 189.002 107.282 189.002Z"
			fill="#5A66F9" fill-opacity="0.2" />
		<path
			d="M107.282 196.43H105.907C105.082 196.43 104.256 195.88 104.256 194.78C104.256 193.955 104.807 193.129 105.907 193.129H107.282C108.108 193.129 108.933 193.68 108.933 194.78C108.658 195.88 108.108 196.43 107.282 196.43Z"
			fill="#5A66F9" fill-opacity="0.2" />
		<path
			d="M145.244 93.263H117.185C116.36 93.263 115.535 92.7128 115.535 91.6125C115.535 90.5122 116.085 89.962 117.185 89.962H145.244C146.069 89.962 146.894 90.5122 146.894 91.6125C146.894 92.7128 146.069 93.263 145.244 93.263Z"
			fill="#5A66F9" fill-opacity="0.2" />
		<path
			d="M220.617 93.263H151.021C150.195 93.263 149.37 92.7128 149.37 91.6125C149.37 90.5122 149.92 89.962 151.021 89.962H220.892C221.717 89.962 222.542 90.5122 222.542 91.6125C222.542 92.7128 221.442 93.263 220.617 93.263Z"
			fill="#5A66F9" fill-opacity="0.2" />
		<path
			d="M250.876 93.263H230.795C229.969 93.263 229.144 92.7128 229.144 91.6125C229.144 90.5122 229.694 89.962 230.795 89.962H250.876C251.701 89.962 252.526 90.5122 252.526 91.6125C252.526 92.7128 251.701 93.263 250.876 93.263Z"
			fill="#E9EAFF" />
		<path
			d="M267.656 93.263H260.779C259.953 93.263 259.128 92.7128 259.128 91.6125C259.128 90.5122 259.678 89.962 260.779 89.962H267.656C268.481 89.962 269.306 90.5122 269.306 91.6125C269.306 92.7128 268.481 93.263 267.656 93.263Z"
			fill="#98A0FF" />
		<path
			d="M163.124 100.691H127.914C127.088 100.691 126.263 100.141 126.263 99.0405C126.263 97.9402 126.813 97.39 127.914 97.39H163.399C164.225 97.39 165.05 97.9402 165.05 99.0405C164.775 100.141 163.949 100.691 163.124 100.691Z"
			fill="#BB6BD9" />
		<path
			d="M163.124 129.853H127.914C127.088 129.853 126.263 129.303 126.263 128.203C126.263 127.102 126.813 126.552 127.914 126.552H163.399C164.225 126.552 165.05 127.102 165.05 128.203C164.775 129.303 163.949 129.853 163.124 129.853Z"
			fill="#BB6BD9" />
		<path
			d="M154.046 137.281H127.914C127.088 137.281 126.263 136.731 126.263 135.631C126.263 134.53 126.813 133.98 127.914 133.98H153.771C154.597 133.98 155.422 134.53 155.422 135.631C155.422 136.731 154.872 137.281 154.046 137.281Z"
			fill="#5A66F9" fill-opacity="0.2" />
		<path
			d="M222.542 137.281H160.924C160.098 137.281 159.273 136.731 159.273 135.631C159.273 134.53 159.823 133.98 160.924 133.98H222.267C223.092 133.98 223.918 134.53 223.918 135.631C224.193 136.731 223.367 137.281 222.542 137.281Z"
			fill="#5A66F9" fill-opacity="0.2" />
		<path
			d="M173.302 108.119H140.017C139.192 108.119 138.367 107.569 138.367 106.469C138.367 105.368 138.917 104.818 140.017 104.818H173.027C173.852 104.818 174.678 105.368 174.678 106.469C174.678 107.569 174.128 108.119 173.302 108.119Z"
			fill="#5A66F9" fill-opacity="0.2" />
		<path
			d="M191.733 108.119H178.254C177.429 108.119 176.603 107.569 176.603 106.469C176.603 105.368 177.154 104.818 178.254 104.818H191.733C192.558 104.818 193.383 105.368 193.383 106.469C193.383 107.569 192.558 108.119 191.733 108.119Z"
			fill="#98A0FF" />
		<path
			d="M231.345 115.547H140.017C139.192 115.547 138.367 114.997 138.367 113.897C138.367 112.796 138.917 112.246 140.017 112.246H231.345C232.17 112.246 232.995 112.796 232.995 113.897C232.995 114.997 232.17 115.547 231.345 115.547Z"
			fill="#5A66F9" fill-opacity="0.2" />
		<path
			d="M247.85 115.547H239.047C238.222 115.547 237.397 114.997 237.397 113.897C237.397 112.796 237.947 112.246 239.047 112.246H247.85C248.675 112.246 249.5 112.796 249.5 113.897C249.5 114.997 248.675 115.547 247.85 115.547Z"
			fill="#98A0FF" />
		<path
			d="M280.31 115.547H253.902C253.076 115.547 252.251 114.997 252.251 113.897C252.251 112.796 252.801 112.246 253.902 112.246H280.31C281.135 112.246 281.96 112.796 281.96 113.897C281.96 114.997 281.135 115.547 280.31 115.547Z"
			fill="#5A66F9" fill-opacity="0.2" />
		<path
			d="M203.011 122.7H140.017C139.192 122.7 138.367 122.15 138.367 121.05C138.367 119.949 138.917 119.399 140.017 119.399H202.736C203.561 119.399 204.387 119.949 204.387 121.05C204.662 122.15 203.837 122.7 203.011 122.7Z"
			fill="#5A66F9" fill-opacity="0.2" />
		<path
			d="M175.503 152.137H151.021C150.195 152.137 149.37 151.587 149.37 150.487C149.37 149.386 149.92 148.836 151.021 148.836H175.503C176.328 148.836 177.154 149.386 177.154 150.487C177.154 151.587 176.328 152.137 175.503 152.137Z"
			fill="#5A66F9" fill-opacity="0.2" />
		<path
			d="M206.862 152.137H180.73C179.904 152.137 179.079 151.587 179.079 150.487C179.079 149.386 179.629 148.836 180.73 148.836H206.862C207.688 148.836 208.513 149.386 208.513 150.487C208.513 151.587 207.688 152.137 206.862 152.137Z"
			fill="#5A66F9" fill-opacity="0.2" />
		<path
			d="M230.52 152.137H212.089C211.264 152.137 210.439 151.587 210.439 150.487C210.439 149.386 210.989 148.836 212.089 148.836H230.52C231.345 148.836 232.17 149.386 232.17 150.487C232.17 151.587 231.345 152.137 230.52 152.137Z"
			fill="#E9EAFF" />
		<path
			d="M247.025 152.137H237.397C236.571 152.137 235.746 151.587 235.746 150.487C235.746 149.386 236.296 148.836 237.397 148.836H247.025C247.85 148.836 248.675 149.386 248.675 150.487C248.675 151.587 247.85 152.137 247.025 152.137Z"
			fill="#E9EAFF" />
		<path
			d="M175.503 174.146H151.021C150.195 174.146 149.37 173.596 149.37 172.496C149.37 171.395 149.92 170.845 151.021 170.845H175.503C176.328 170.845 177.154 171.395 177.154 172.496C177.154 173.596 176.328 174.146 175.503 174.146Z"
			fill="#E9EAFF" />
		<path
			d="M230.52 195.88H151.296C150.47 195.88 149.645 195.33 149.645 194.23C149.645 193.404 150.195 192.579 151.296 192.579H230.795C231.62 192.579 232.445 193.129 232.445 194.23C231.895 195.33 231.07 195.88 230.52 195.88Z"
			fill="#BB6BD9" />
		<path
			d="M186.231 159.29H161.749C160.924 159.29 160.098 158.74 160.098 157.64C160.098 156.539 160.648 155.989 161.749 155.989H186.231C187.056 155.989 187.882 156.539 187.882 157.64C187.882 158.74 187.056 159.29 186.231 159.29Z"
			fill="#BB6BD9" />
		<path
			d="M226.393 159.29H191.458C190.633 159.29 189.807 158.74 189.807 157.64C189.807 156.539 190.357 155.989 191.458 155.989H226.393C227.219 155.989 228.044 156.539 228.044 157.64C228.044 158.74 227.219 159.29 226.393 159.29Z"
			fill="#5A66F9" fill-opacity="0.2" />
		<path
			d="M249.225 159.29H231.07C230.245 159.29 229.419 158.74 229.419 157.64C229.419 156.539 229.969 155.989 231.07 155.989H248.675C249.5 155.989 250.326 156.539 250.326 157.64C250.601 158.74 250.051 159.29 249.225 159.29Z"
			fill="#5A66F9" fill-opacity="0.2" />
		<path
			d="M259.954 159.29H253.902C253.076 159.29 252.251 158.74 252.251 157.64C252.251 156.539 252.801 155.989 253.902 155.989H259.954C260.779 155.989 261.604 156.539 261.604 157.64C261.604 158.74 260.779 159.29 259.954 159.29Z"
			fill="#98A0FF" />
		<path
			d="M192.008 166.718H162.024C161.199 166.718 160.373 166.168 160.373 165.068C160.373 164.242 160.924 163.417 162.024 163.417H192.008C192.833 163.417 193.658 163.967 193.658 165.068C193.383 165.893 192.833 166.718 192.008 166.718Z"
			fill="#5A66F9" fill-opacity="0.2" />
		<path
			d="M206.037 166.718H197.51C196.684 166.718 195.859 166.168 195.859 165.068C195.859 164.242 196.409 163.417 197.51 163.417H206.037C206.862 163.417 207.688 163.967 207.688 165.068C207.413 165.893 206.587 166.718 206.037 166.718Z"
			fill="#BB6BD9" />
		<path
			d="M273.708 166.718H211.539C210.714 166.718 209.888 166.168 209.888 165.068C209.888 164.242 210.439 163.417 211.539 163.417H273.433C274.258 163.417 275.083 163.967 275.083 165.068C275.358 165.893 274.533 166.718 273.708 166.718Z"
			fill="#5A66F9" fill-opacity="0.2" />
		<path
			d="M175.503 144.709H140.017C139.192 144.709 138.367 144.159 138.367 143.059C138.367 141.958 138.917 141.408 140.017 141.408H175.503C176.328 141.408 177.153 141.958 177.153 143.059C177.153 144.159 176.328 144.709 175.503 144.709Z"
			fill="#5A66F9" fill-opacity="0.2" />
		<path
			d="M190.357 144.709H181.005C180.179 144.709 179.354 144.159 179.354 143.059C179.354 141.958 179.904 141.408 181.005 141.408H190.357C191.183 141.408 192.008 141.958 192.008 143.059C192.008 144.159 191.183 144.709 190.357 144.709Z"
			fill="#98A0FF" />
		<path
			d="M175.503 181.574H140.017C139.192 181.574 138.367 181.024 138.367 179.924C138.367 179.099 138.917 178.273 140.017 178.273H175.503C176.328 178.273 177.153 178.823 177.153 179.924C177.153 180.749 176.328 181.574 175.503 181.574Z"
			fill="#5A66F9" fill-opacity="0.2" />
		<path
			d="M203.561 188.452H140.292C139.467 188.452 138.642 187.902 138.642 186.802C138.642 185.976 139.192 185.151 140.292 185.151H203.286C204.112 185.151 204.937 185.701 204.937 186.802C204.937 187.902 204.387 188.452 203.561 188.452Z"
			fill="#5A66F9" fill-opacity="0.2" />
		<path
			d="M230.52 188.452H208.238C207.413 188.452 206.587 187.902 206.587 186.802C206.587 185.976 207.138 185.151 208.238 185.151H230.52C231.345 185.151 232.17 185.701 232.17 186.802C232.17 187.902 231.345 188.452 230.52 188.452Z"
			fill="#E9EAFF" />
		<path
			d="M245.099 188.452H235.746C234.921 188.452 234.096 187.902 234.096 186.802C234.096 185.976 234.646 185.151 235.746 185.151H245.099C245.924 185.151 246.75 185.701 246.75 186.802C246.75 187.902 246.199 188.452 245.099 188.452Z"
			fill="#98A0FF" />
		<path
			d="M59.693 86.9352H56.9422C56.392 86.9352 55.8419 86.385 55.8419 85.8349V83.084C55.8419 82.5339 56.392 81.9837 56.9422 81.9837H59.693C60.2432 81.9837 60.7934 82.5339 60.7934 83.084V85.8349C60.5183 86.385 60.2432 86.9352 59.693 86.9352Z"
			fill="#5A66F9" fill-opacity="0.2" />
		<path
			d="M68.4957 85.2848H62.7189C62.1688 85.2848 61.6186 84.7347 61.6186 84.1845C61.6186 83.6343 62.1688 83.0842 62.7189 83.0842H68.4957C69.0458 83.0842 69.596 83.6343 69.596 84.1845C69.596 85.0098 69.0458 85.2848 68.4957 85.2848Z"
			fill="#5A66F9" fill-opacity="0.2" />
		<path
			d="M64.6445 94.0882H61.8937C61.3435 94.0882 60.7934 93.538 60.7934 92.9878V90.237C60.7934 89.6868 61.3435 89.1367 61.8937 89.1367H64.6445C65.1947 89.1367 65.7449 89.6868 65.7449 90.237V92.9878C65.7449 93.538 65.1947 94.0882 64.6445 94.0882Z"
			fill="#5A66F9" fill-opacity="0.2" />
		<path
			d="M73.7223 92.7129H67.9455C67.3954 92.7129 66.8452 92.1627 66.8452 91.6125C66.8452 91.0624 67.3954 90.5122 67.9455 90.5122H73.7223C74.2724 90.5122 74.8226 91.0624 74.8226 91.6125C74.8226 92.1627 74.2724 92.7129 73.7223 92.7129Z"
			fill="#5A66F9" fill-opacity="0.2" />
		<path
			d="M64.6445 144.984H61.8937C61.3435 144.984 60.7934 144.434 60.7934 143.884V141.133C60.7934 140.583 61.3435 140.033 61.8937 140.033H64.6445C65.1947 140.033 65.7449 140.583 65.7449 141.133V143.884C65.7449 144.434 65.1947 144.984 64.6445 144.984Z"
			fill="#5A66F9" fill-opacity="0.2" />
		<path
			d="M73.7223 143.609H67.9455C67.3954 143.609 66.8452 143.059 66.8452 142.508C66.8452 141.958 67.3954 141.408 67.9455 141.408H73.7223C74.2724 141.408 74.8226 141.958 74.8226 142.508C74.8226 143.059 74.2724 143.609 73.7223 143.609Z"
			fill="#5A66F9" fill-opacity="0.2" />
		<path
			d="M60.2432 152.412H57.4924C56.9422 152.412 56.392 151.862 56.392 151.312V148.561C56.392 148.011 56.9422 147.461 57.4924 147.461H60.2432C60.7934 147.461 61.3435 148.011 61.3435 148.561V151.312C61.0684 151.862 60.5183 152.412 60.2432 152.412Z"
			fill="#5A66F9" fill-opacity="0.2" />
		<path
			d="M69.3209 151.037H63.5442C62.994 151.037 62.4438 150.487 62.4438 149.937C62.4438 149.386 62.994 148.836 63.5442 148.836H69.3209C69.8711 148.836 70.4213 149.386 70.4213 149.937C70.1462 150.762 69.8711 151.037 69.3209 151.037Z"
			fill="#5A66F9" fill-opacity="0.2" />
		<path
			d="M60.2432 159.565H57.4924C56.9422 159.565 56.392 159.015 56.392 158.465V155.714C56.392 155.164 56.9422 154.614 57.4924 154.614H60.2432C60.7934 154.614 61.3435 155.164 61.3435 155.714V158.465C61.0684 159.015 60.5183 159.565 60.2432 159.565Z"
			fill="#5A66F9" fill-opacity="0.2" />
		<path
			d="M69.3209 157.915H63.5442C62.994 157.915 62.4438 157.365 62.4438 156.814C62.4438 156.264 62.994 155.714 63.5442 155.714H69.3209C69.8711 155.714 70.4213 156.264 70.4213 156.814C70.1462 157.64 69.8711 157.915 69.3209 157.915Z"
			fill="#5A66F9" fill-opacity="0.2" />
		<path
			d="M60.2432 166.718H57.4924C56.9422 166.718 56.392 166.168 56.392 165.618V162.867C56.392 162.317 56.9422 161.767 57.4924 161.767H60.2432C60.7934 161.767 61.3435 162.317 61.3435 162.867V165.618C61.0684 166.168 60.5183 166.718 60.2432 166.718Z"
			fill="#5A66F9" fill-opacity="0.2" />
		<path
			d="M69.3209 165.343H63.5442C62.994 165.343 62.4438 164.793 62.4438 164.242C62.4438 163.692 62.994 163.142 63.5442 163.142H69.3209C69.8711 163.142 70.4213 163.692 70.4213 164.242C70.1462 164.793 69.8711 165.343 69.3209 165.343Z"
			fill="#5A66F9" fill-opacity="0.2" />
		<path
			d="M69.3209 102.066H66.5701C66.0199 102.066 65.4698 101.516 65.4698 100.966V98.2153C65.4698 97.6651 66.0199 97.1149 66.5701 97.1149H69.3209C69.8711 97.1149 70.4213 97.6651 70.4213 98.2153V100.966C70.4213 101.516 69.8711 102.066 69.3209 102.066Z"
			fill="#5A66F9" fill-opacity="0.2" />
		<path
			d="M78.6738 100.691H72.897C72.3469 100.691 71.7967 100.141 71.7967 99.5908C71.7967 99.0407 72.3469 98.4905 72.897 98.4905H78.6738C79.2239 98.4905 79.7741 99.0407 79.7741 99.5908C79.499 100.141 79.2239 100.691 78.6738 100.691Z"
			fill="#5A66F9" fill-opacity="0.2" />
		<path
			d="M74.5475 109.219H71.7967C71.2465 109.219 70.6964 108.669 70.6964 108.119V105.368C70.6964 104.818 71.2465 104.268 71.7967 104.268H74.5475C75.0977 104.268 75.6479 104.818 75.6479 105.368V108.119C75.6479 108.669 75.0977 109.219 74.5475 109.219Z"
			fill="#5A66F9" fill-opacity="0.2" />
		<path
			d="M83.6252 107.569H77.8485C77.2983 107.569 76.7482 107.019 76.7482 106.469C76.7482 105.918 77.2983 105.368 77.8485 105.368H83.6252C84.1754 105.368 84.7256 105.918 84.7256 106.469C84.7256 107.294 84.1754 107.569 83.6252 107.569Z"
			fill="#5A66F9" fill-opacity="0.2" />
		<path
			d="M74.5475 116.372H71.7967C71.2465 116.372 70.6964 115.822 70.6964 115.272V112.521C70.6964 111.971 71.2465 111.421 71.7967 111.421H74.5475C75.0977 111.421 75.6479 111.971 75.6479 112.521V115.272C75.6479 115.822 75.0977 116.372 74.5475 116.372Z"
			fill="#5A66F9" fill-opacity="0.2" />
		<path
			d="M83.6252 114.722H77.8485C77.2983 114.722 76.7482 114.172 76.7482 113.622C76.7482 113.071 77.2983 112.521 77.8485 112.521H83.6252C84.1754 112.521 84.7256 113.071 84.7256 113.622C84.7256 114.172 84.1754 114.722 83.6252 114.722Z"
			fill="#5A66F9" fill-opacity="0.2" />
		<path
			d="M74.5475 122.975H71.7967C71.2465 122.975 70.6964 122.425 70.6964 121.875V119.124C70.6964 118.574 71.2465 118.024 71.7967 118.024H74.5475C75.0977 118.024 75.6479 118.574 75.6479 119.124V121.875C75.6479 122.7 75.0977 122.975 74.5475 122.975Z"
			fill="#5A66F9" fill-opacity="0.2" />
		<path
			d="M83.6252 121.6H77.8485C77.2983 121.6 76.7482 121.05 76.7482 120.499C76.7482 119.949 77.2983 119.399 77.8485 119.399H83.6252C84.1754 119.399 84.7256 119.949 84.7256 120.499C84.7256 121.05 84.1754 121.6 83.6252 121.6Z"
			fill="#5A66F9" fill-opacity="0.2" />
		<path
			d="M74.5475 130.128H71.7967C71.2465 130.128 70.6964 129.578 70.6964 129.028V126.277C70.6964 125.727 71.2465 125.176 71.7967 125.176H74.5475C75.0977 125.176 75.6479 125.727 75.6479 126.277V129.028C75.6479 129.578 75.0977 130.128 74.5475 130.128Z"
			fill="#5A66F9" fill-opacity="0.2" />
		<path
			d="M83.6252 128.478H77.8485C77.2983 128.478 76.7482 127.927 76.7482 127.377C76.7482 126.827 77.2983 126.277 77.8485 126.277H83.6252C84.1754 126.277 84.7256 126.827 84.7256 127.377C84.7256 128.202 84.1754 128.478 83.6252 128.478Z"
			fill="#5A66F9" fill-opacity="0.2" />
		<path
			d="M74.5475 137.281H71.7967C71.2465 137.281 70.6964 136.731 70.6964 136.181V133.43C70.6964 132.88 71.2465 132.329 71.7967 132.329H74.5475C75.0977 132.329 75.6479 132.88 75.6479 133.43V136.181C75.6479 136.731 75.0977 137.281 74.5475 137.281Z"
			fill="#5A66F9" fill-opacity="0.2" />
		<path
			d="M83.6252 135.631H77.8485C77.2983 135.631 76.7482 135.08 76.7482 134.53C76.7482 133.98 77.2983 133.43 77.8485 133.43H83.6252C84.1754 133.43 84.7256 133.98 84.7256 134.53C84.7256 135.355 84.1754 135.631 83.6252 135.631Z"
			fill="#5A66F9" fill-opacity="0.2" />
		<path
			d="M412.349 288.869V294.096C412.349 298.773 408.223 302.624 403.272 302.624H224.193C219.241 302.624 215.115 298.773 215.115 294.096V288.869H296.54C297.09 290.795 299.015 292.17 301.491 292.17H326.799C328.999 292.17 330.925 290.795 331.75 288.869H412.349Z"
			fill="#EEF0FE" />
		<path
			d="M402.171 288.869H225.293V176.623C225.293 173.046 228.319 170.02 231.895 170.02H395.845C399.421 170.02 402.447 173.046 402.447 176.623V288.869H402.171Z"
			fill="white" />
		<path
			d="M402.171 290.244C401.346 290.244 400.796 289.694 400.796 288.869V176.623C400.796 173.871 398.32 171.395 395.569 171.395H287.462C286.637 171.395 286.086 170.845 286.086 170.02C286.086 169.195 286.637 168.644 287.462 168.644H395.569C399.971 168.644 403.547 172.221 403.547 176.623V288.869C403.547 289.694 402.997 290.244 402.171 290.244Z"
			fill="#3946EE" />
		<path
			d="M277.284 171.395H276.734C275.908 171.395 275.358 170.845 275.358 170.02C275.358 169.195 275.908 168.644 276.734 168.644H277.284C278.109 168.644 278.659 169.195 278.659 170.02C278.659 170.845 277.834 171.395 277.284 171.395Z"
			fill="#3946EE" />
		<path
			d="M225.568 290.244C224.743 290.244 224.193 289.694 224.193 288.869V176.623C224.193 172.221 227.769 168.644 232.17 168.644H270.407C271.232 168.644 271.782 169.195 271.782 170.02C271.782 170.845 271.232 171.395 270.407 171.395H231.895C229.144 171.395 226.668 173.871 226.668 176.623V288.869C226.944 289.694 226.118 290.244 225.568 290.244Z"
			fill="#3946EE" />
		<path
			d="M403.547 304H224.193C218.416 304 213.74 299.598 213.74 294.096V288.869C213.74 288.043 214.29 287.493 215.115 287.493H280.31C281.135 287.493 281.685 288.043 281.685 288.869C281.685 289.694 281.135 290.244 280.31 290.244H216.49V294.096C216.49 297.948 220.066 301.249 224.193 301.249H403.822C407.948 301.249 411.524 297.948 411.524 294.096V290.244H332.575C331.475 292.17 329.274 293.546 326.799 293.546H301.491C299.015 293.546 296.815 292.17 295.714 290.244H292.688C291.863 290.244 291.313 289.694 291.313 288.869C291.313 288.043 291.863 287.493 292.688 287.493H296.815C297.365 287.493 297.915 287.768 298.19 288.594C298.465 289.969 300.116 290.795 301.766 290.795H327.074C328.724 290.795 330.1 289.694 330.65 288.319C330.925 287.768 331.475 287.493 332.025 287.493H412.625C413.45 287.493 414 288.043 414 288.869V294.096C414 299.598 409.324 304 403.547 304Z"
			fill="#3946EE" />
		<path
			d="M383.741 188.177V256.13C383.741 257.506 382.64 258.881 380.99 258.881H288.012C286.637 258.881 285.261 257.781 285.261 256.13V188.177C285.261 186.802 286.361 185.426 288.012 185.426H380.99C382.365 185.701 383.741 186.802 383.741 188.177Z"
			fill="#E9EAFF" />
		<path d="M292.688 190.653V258.881H287.737C286.361 258.881 284.986 257.781 284.986 256.13V190.653H292.688Z"
			fill="#5A66F9" fill-opacity="0.1" />
		<path
			d="M380.99 260.257H288.012C285.811 260.257 283.886 258.331 283.886 256.13V188.177C283.886 185.976 285.811 184.051 288.012 184.051H380.99C383.191 184.051 385.116 185.976 385.116 188.177V256.13C385.116 258.331 383.466 260.257 380.99 260.257ZM288.012 187.077C287.187 187.077 286.637 187.902 286.637 188.452V256.405C286.637 257.231 287.462 257.781 288.012 257.781H380.99C381.815 257.781 382.366 256.956 382.366 256.405V188.177C382.366 187.627 381.54 186.802 380.99 186.802H288.012V187.077Z"
			fill="#3946EE" />
		<path
			d="M383.741 192.853C382.916 192.853 382.366 192.303 382.366 191.478V188.177C382.366 187.627 381.54 186.802 380.99 186.802H288.012C287.187 186.802 286.637 187.627 286.637 188.177V190.103H364.485C365.31 190.103 365.861 190.653 365.861 191.478C365.861 192.303 365.31 192.853 364.485 192.853H285.261C284.436 192.853 283.886 192.303 283.886 191.478V188.177C283.886 185.976 285.811 184.051 288.012 184.051H380.99C383.191 184.051 385.116 185.976 385.116 188.177V191.478C385.116 192.303 384.566 192.853 383.741 192.853Z"
			fill="#3946EE" />
		<path
			d="M288.287 189.553C288.837 189.553 289.112 189.278 289.112 188.728C289.112 188.177 288.837 187.902 288.287 187.902C287.737 187.902 287.462 188.177 287.462 188.728C287.462 189.278 287.737 189.553 288.287 189.553Z"
			fill="#E9EAFF" />
		<path
			d="M290.763 189.553C291.313 189.553 291.588 189.278 291.588 188.728C291.588 188.177 291.313 187.902 290.763 187.902C290.213 187.902 289.938 188.177 289.938 188.728C289.938 189.278 290.213 189.553 290.763 189.553Z"
			fill="#E9EAFF" />
		<path
			d="M292.963 189.553C293.514 189.553 293.789 189.278 293.789 188.728C293.789 188.177 293.514 187.902 292.963 187.902C292.413 187.902 292.138 188.177 292.138 188.728C292.138 189.278 292.413 189.553 292.963 189.553Z"
			fill="#E9EAFF" />
		<path
			d="M314.145 197.531H295.989C295.439 197.531 295.164 197.256 295.164 196.706C295.164 196.156 295.439 195.881 295.989 195.881H314.145C314.695 195.881 314.97 196.156 314.97 196.706C314.97 197.256 314.695 197.531 314.145 197.531Z"
			fill="#5A66F9" fill-opacity="0.2" />
		<path
			d="M289.112 197.531H288.287C287.737 197.531 287.462 197.256 287.462 196.706C287.462 196.156 287.737 195.881 288.287 195.881H289.112C289.662 195.881 289.938 196.156 289.938 196.706C289.938 197.256 289.662 197.531 289.112 197.531Z"
			fill="#5A66F9" fill-opacity="0.2" />
		<path
			d="M289.112 201.383H288.287C287.737 201.383 287.462 201.108 287.462 200.557C287.462 200.007 287.737 199.732 288.287 199.732H289.112C289.662 199.732 289.938 200.007 289.938 200.557C289.938 201.108 289.662 201.383 289.112 201.383Z"
			fill="#5A66F9" fill-opacity="0.2" />
		<path
			d="M289.112 205.234H288.287C287.737 205.234 287.462 204.959 287.462 204.409C287.462 203.859 287.737 203.584 288.287 203.584H289.112C289.662 203.584 289.938 203.859 289.938 204.409C289.938 204.959 289.662 205.234 289.112 205.234Z"
			fill="#5A66F9" fill-opacity="0.2" />
		<path
			d="M289.112 209.086H288.287C287.737 209.086 287.462 208.811 287.462 208.261C287.462 207.71 287.737 207.435 288.287 207.435H289.112C289.662 207.435 289.938 207.71 289.938 208.261C289.938 208.811 289.662 209.086 289.112 209.086Z"
			fill="#5A66F9" fill-opacity="0.2" />
		<path
			d="M289.112 212.937H288.287C287.737 212.937 287.462 212.662 287.462 212.112C287.462 211.562 287.737 211.287 288.287 211.287H289.112C289.662 211.287 289.938 211.562 289.938 212.112C289.938 212.662 289.662 212.937 289.112 212.937Z"
			fill="#5A66F9" fill-opacity="0.2" />
		<path
			d="M289.112 216.789H288.287C287.737 216.789 287.462 216.514 287.462 215.964C287.462 215.414 287.737 215.138 288.287 215.138H289.112C289.662 215.138 289.938 215.414 289.938 215.964C289.938 216.514 289.662 216.789 289.112 216.789Z"
			fill="#5A66F9" fill-opacity="0.2" />
		<path
			d="M289.112 220.365H288.287C287.737 220.365 287.462 220.09 287.462 219.54C287.462 218.99 287.737 218.715 288.287 218.715H289.112C289.662 218.715 289.938 218.99 289.938 219.54C289.938 220.09 289.662 220.365 289.112 220.365Z"
			fill="#5A66F9" fill-opacity="0.2" />
		<path
			d="M289.112 224.217H288.287C287.737 224.217 287.462 223.942 287.462 223.392C287.462 222.842 287.737 222.567 288.287 222.567H289.112C289.662 222.567 289.938 222.842 289.938 223.392C289.938 223.942 289.662 224.217 289.112 224.217Z"
			fill="#5A66F9" fill-opacity="0.2" />
		<path
			d="M289.112 228.069H288.287C287.737 228.069 287.462 227.793 287.462 227.243C287.462 226.693 287.737 226.418 288.287 226.418H289.112C289.662 226.418 289.938 226.693 289.938 227.243C289.938 227.518 289.662 228.069 289.112 228.069Z"
			fill="#5A66F9" fill-opacity="0.2" />
		<path
			d="M289.112 231.92H288.287C287.737 231.92 287.462 231.645 287.462 231.095C287.462 230.545 287.737 230.27 288.287 230.27H289.112C289.662 230.27 289.938 230.545 289.938 231.095C289.938 231.645 289.662 231.92 289.112 231.92Z"
			fill="#5A66F9" fill-opacity="0.2" />
		<path
			d="M289.112 235.772H288.287C287.737 235.772 287.462 235.497 287.462 234.947C287.462 234.396 287.737 234.121 288.287 234.121H289.112C289.662 234.121 289.938 234.396 289.938 234.947C289.938 235.497 289.662 235.772 289.112 235.772Z"
			fill="#5A66F9" fill-opacity="0.2" />
		<path
			d="M289.112 239.623H288.287C287.737 239.623 287.462 239.348 287.462 238.798C287.462 238.248 287.737 237.973 288.287 237.973H289.112C289.662 237.973 289.938 238.248 289.938 238.798C289.938 239.348 289.662 239.623 289.112 239.623Z"
			fill="#5A66F9" fill-opacity="0.2" />
		<path
			d="M289.112 243.2H288.287C287.737 243.2 287.462 242.925 287.462 242.375C287.462 241.824 287.737 241.549 288.287 241.549H289.112C289.662 241.549 289.938 241.824 289.938 242.375C289.938 242.925 289.662 243.2 289.112 243.2Z"
			fill="#5A66F9" fill-opacity="0.2" />
		<path
			d="M289.112 247.051H288.287C287.737 247.051 287.462 246.776 287.462 246.226C287.462 245.676 287.737 245.401 288.287 245.401H289.112C289.662 245.401 289.938 245.676 289.938 246.226C289.938 246.776 289.662 247.051 289.112 247.051Z"
			fill="#5A66F9" fill-opacity="0.2" />
		<path
			d="M289.112 250.903H288.287C287.737 250.903 287.462 250.628 287.462 250.078C287.462 249.528 287.737 249.253 288.287 249.253H289.112C289.662 249.253 289.938 249.528 289.938 250.078C289.938 250.628 289.662 250.903 289.112 250.903Z"
			fill="#5A66F9" fill-opacity="0.2" />
		<path
			d="M289.112 254.48H288.287C287.737 254.48 287.462 254.204 287.462 253.654C287.462 253.104 287.737 252.829 288.287 252.829H289.112C289.662 252.829 289.938 253.104 289.938 253.654C289.938 254.204 289.662 254.48 289.112 254.48Z"
			fill="#5A66F9" fill-opacity="0.2" />
		<path
			d="M310.294 201.383H295.989C295.439 201.383 295.164 201.108 295.164 200.557C295.164 200.007 295.439 199.732 295.989 199.732H310.294C310.844 199.732 311.119 200.007 311.119 200.557C311.119 201.108 310.844 201.383 310.294 201.383Z"
			fill="#5A66F9" fill-opacity="0.2" />
		<path
			d="M349.356 201.383H313.32C312.769 201.383 312.494 201.108 312.494 200.557C312.494 200.007 312.769 199.732 313.32 199.732H349.356C349.906 199.732 350.181 200.007 350.181 200.557C350.181 201.108 349.906 201.383 349.356 201.383Z"
			fill="#5A66F9" fill-opacity="0.2" />
		<path
			d="M365.035 201.383H354.582C354.032 201.383 353.757 201.108 353.757 200.557C353.757 200.007 354.032 199.732 354.582 199.732H365.035C365.585 199.732 365.86 200.007 365.86 200.557C365.86 201.108 365.31 201.383 365.035 201.383Z"
			fill="#5A66F9" fill-opacity="0.2" />
		<path
			d="M373.563 201.383H369.987C369.437 201.383 369.161 201.108 369.161 200.557C369.161 200.007 369.437 199.732 369.987 199.732H373.563C374.113 199.732 374.388 200.007 374.388 200.557C374.388 201.108 374.113 201.383 373.563 201.383Z"
			fill="#5A66F9" fill-opacity="0.2" />
		<path
			d="M319.646 205.234H301.491C300.941 205.234 300.666 204.959 300.666 204.409C300.666 203.859 300.941 203.584 301.491 203.584H319.646C320.197 203.584 320.472 203.859 320.472 204.409C320.472 204.959 320.197 205.234 319.646 205.234Z"
			fill="#5A66F9" fill-opacity="0.2" />
		<path
			d="M319.646 220.09H301.491C300.941 220.09 300.666 219.815 300.666 219.265C300.666 218.715 300.941 218.44 301.491 218.44H319.646C320.197 218.44 320.472 218.715 320.472 219.265C320.472 219.815 320.197 220.09 319.646 220.09Z"
			fill="#5A66F9" fill-opacity="0.2" />
		<path
			d="M314.97 223.942H301.766C301.216 223.942 300.941 223.667 300.941 223.117C300.941 222.566 301.216 222.291 301.766 222.291H314.97C315.52 222.291 315.795 222.566 315.795 223.117C315.795 223.667 315.245 223.942 314.97 223.942Z"
			fill="#5A66F9" fill-opacity="0.2" />
		<path
			d="M350.456 223.942H318.546C317.996 223.942 317.721 223.667 317.721 223.117C317.721 222.566 317.996 222.291 318.546 222.291H350.456C351.006 222.291 351.281 222.566 351.281 223.117C351.281 223.667 351.006 223.942 350.456 223.942Z"
			fill="#5A66F9" fill-opacity="0.2" />
		<path
			d="M324.873 209.086H307.818C307.268 209.086 306.993 208.811 306.993 208.261C306.993 207.71 307.268 207.435 307.818 207.435H324.873C325.423 207.435 325.698 207.71 325.698 208.261C325.698 208.811 325.423 209.086 324.873 209.086Z"
			fill="#5A66F9" fill-opacity="0.2" />
		<path
			d="M334.501 209.086H327.349C326.799 209.086 326.524 208.811 326.524 208.261C326.524 207.71 326.799 207.435 327.349 207.435H334.501C335.051 207.435 335.326 207.71 335.326 208.261C335.326 208.811 334.776 209.086 334.501 209.086Z"
			fill="#5A66F9" fill-opacity="0.2" />
		<path
			d="M354.857 212.937H307.818C307.268 212.937 306.993 212.662 306.993 212.112C306.993 211.562 307.268 211.287 307.818 211.287H354.857C355.407 211.287 355.682 211.562 355.682 212.112C355.682 212.662 355.407 212.937 354.857 212.937Z"
			fill="#5A66F9" fill-opacity="0.2" />
		<path
			d="M363.385 212.937H358.983C358.433 212.937 358.158 212.662 358.158 212.112C358.158 211.562 358.433 211.287 358.983 211.287H363.385C363.935 211.287 364.21 211.562 364.21 212.112C364.21 212.662 363.66 212.937 363.385 212.937Z"
			fill="#5A66F9" fill-opacity="0.2" />
		<path
			d="M380.165 212.937H366.686C366.136 212.937 365.86 212.662 365.86 212.112C365.86 211.562 366.136 211.287 366.686 211.287H380.165C380.715 211.287 380.99 211.562 380.99 212.112C380.99 212.662 380.715 212.937 380.165 212.937Z"
			fill="#5A66F9" fill-opacity="0.2" />
		<path
			d="M340.278 216.789H307.818C307.268 216.789 306.993 216.514 306.993 215.964C306.993 215.414 307.268 215.138 307.818 215.138H340.278C340.828 215.138 341.103 215.414 341.103 215.964C341.103 216.514 340.553 216.789 340.278 216.789Z"
			fill="#5A66F9" fill-opacity="0.2" />
		<path
			d="M326.248 231.645H313.595C313.045 231.645 312.769 231.37 312.769 230.82C312.769 230.27 313.045 229.995 313.595 229.995H325.973C326.524 229.995 326.799 230.27 326.799 230.82C327.074 231.37 326.524 231.645 326.248 231.645Z"
			fill="#5A66F9" fill-opacity="0.2" />
		<path
			d="M342.203 231.645H328.999C328.449 231.645 328.174 231.37 328.174 230.82C328.174 230.27 328.449 229.995 328.999 229.995H342.203C342.753 229.995 343.029 230.27 343.029 230.82C343.029 231.37 342.753 231.645 342.203 231.645Z"
			fill="#5A66F9" fill-opacity="0.2" />
		<path
			d="M354.307 231.645H344.679C344.129 231.645 343.854 231.37 343.854 230.82C343.854 230.27 344.129 229.995 344.679 229.995H354.307C354.857 229.995 355.132 230.27 355.132 230.82C355.132 231.37 354.857 231.645 354.307 231.645Z"
			fill="#5A66F9" fill-opacity="0.2" />
		<path
			d="M362.835 231.645H357.883C357.333 231.645 357.058 231.37 357.058 230.82C357.058 230.27 357.333 229.995 357.883 229.995H362.835C363.385 229.995 363.66 230.27 363.66 230.82C363.66 231.37 363.385 231.645 362.835 231.645Z"
			fill="#5A66F9" fill-opacity="0.2" />
		<path
			d="M326.248 243.2H313.595C313.045 243.2 312.769 242.925 312.769 242.375C312.769 241.824 313.045 241.549 313.595 241.549H325.973C326.524 241.549 326.799 241.824 326.799 242.375C327.074 242.925 326.524 243.2 326.248 243.2Z"
			fill="#5A66F9" fill-opacity="0.2" />
		<path
			d="M354.307 254.204H313.32C312.769 254.204 312.494 253.929 312.494 253.379C312.494 252.829 312.769 252.554 313.32 252.554H354.307C354.857 252.554 355.132 252.829 355.132 253.379C355.132 253.929 354.857 254.204 354.307 254.204Z"
			fill="#5A66F9" fill-opacity="0.2" />
		<path
			d="M331.475 235.497H319.096C318.546 235.497 318.271 235.222 318.271 234.671C318.271 234.121 318.546 233.846 319.096 233.846H331.475C332.025 233.846 332.3 234.121 332.3 234.671C332.3 235.222 332.025 235.497 331.475 235.497Z"
			fill="#5A66F9" fill-opacity="0.2" />
		<path
			d="M352.106 235.497H334.226C333.676 235.497 333.401 235.222 333.401 234.671C333.401 234.121 333.676 233.846 334.226 233.846H352.106C352.656 233.846 352.932 234.121 352.932 234.671C352.932 235.222 352.656 235.497 352.106 235.497Z"
			fill="#5A66F9" fill-opacity="0.2" />
		<path
			d="M363.935 235.497H354.582C354.032 235.497 353.757 235.222 353.757 234.671C353.757 234.121 354.032 233.846 354.582 233.846H363.935C364.485 233.846 364.76 234.121 364.76 234.671C364.76 235.222 364.485 235.497 363.935 235.497Z"
			fill="#5A66F9" fill-opacity="0.2" />
		<path
			d="M369.712 235.497H366.686C366.136 235.497 365.86 235.222 365.86 234.671C365.86 234.121 366.136 233.846 366.686 233.846H369.712C370.262 233.846 370.537 234.121 370.537 234.671C370.537 235.222 370.262 235.497 369.712 235.497Z"
			fill="#5A66F9" fill-opacity="0.2" />
		<path
			d="M334.501 239.348H319.096C318.546 239.348 318.271 239.073 318.271 238.523C318.271 237.973 318.546 237.698 319.096 237.698H334.501C335.051 237.698 335.326 237.973 335.326 238.523C335.326 239.073 335.051 239.348 334.501 239.348Z"
			fill="#5A66F9" fill-opacity="0.2" />
		<path
			d="M341.653 239.348H337.252C336.702 239.348 336.427 239.073 336.427 238.523C336.427 237.973 336.702 237.698 337.252 237.698H341.653C342.203 237.698 342.478 237.973 342.478 238.523C342.478 239.073 342.203 239.348 341.653 239.348Z"
			fill="#5A66F9" fill-opacity="0.2" />
		<path
			d="M376.589 239.348H344.404C343.854 239.348 343.579 239.073 343.579 238.523C343.579 237.973 343.854 237.698 344.404 237.698H376.589C377.139 237.698 377.414 237.973 377.414 238.523C377.414 239.073 377.139 239.348 376.589 239.348Z"
			fill="#5A66F9" fill-opacity="0.2" />
		<path
			d="M326.249 227.793H308.093C307.543 227.793 307.268 227.518 307.268 226.968C307.268 226.418 307.543 226.143 308.093 226.143H326.249C326.799 226.143 327.074 226.418 327.074 226.968C327.074 227.518 326.524 227.793 326.249 227.793Z"
			fill="#5A66F9" fill-opacity="0.2" />
		<path
			d="M333.676 227.793H328.999C328.449 227.793 328.174 227.518 328.174 226.968C328.174 226.418 328.449 226.143 328.999 226.143H333.676C334.226 226.143 334.501 226.418 334.501 226.968C334.501 227.518 334.226 227.793 333.676 227.793Z"
			fill="#5A66F9" fill-opacity="0.2" />
		<path
			d="M326.249 247.051H308.093C307.543 247.051 307.268 246.776 307.268 246.226C307.268 245.676 307.543 245.401 308.093 245.401H326.249C326.799 245.401 327.074 245.676 327.074 246.226C327.074 246.776 326.524 247.051 326.249 247.051Z"
			fill="#5A66F9" fill-opacity="0.2" />
		<path
			d="M340.553 250.628H307.818C307.268 250.628 306.993 250.353 306.993 249.803C306.993 249.253 307.268 248.977 307.818 248.977H340.553C341.103 248.977 341.378 249.253 341.378 249.803C341.378 250.353 340.828 250.628 340.553 250.628Z"
			fill="#5A66F9" fill-opacity="0.2" />
		<path
			d="M354.307 250.628H342.753C342.203 250.628 341.928 250.353 341.928 249.803C341.928 249.253 342.203 248.977 342.753 248.977H354.307C354.857 248.977 355.132 249.253 355.132 249.803C355.132 250.353 354.857 250.628 354.307 250.628Z"
			fill="#5A66F9" fill-opacity="0.2" />
		<path
			d="M362.009 250.628H357.333C356.783 250.628 356.508 250.353 356.508 249.803C356.508 249.253 356.783 248.977 357.333 248.977H362.009C362.559 248.977 362.835 249.253 362.835 249.803C362.835 250.353 362.559 250.628 362.009 250.628Z"
			fill="#5A66F9" fill-opacity="0.2" />
		<path
			d="M346.054 209.636V277.589C346.054 278.965 344.954 280.34 343.304 280.34H250.326C248.95 280.34 247.575 279.24 247.575 277.589V209.636C247.575 208.261 248.675 206.885 250.326 206.885H343.304C344.954 206.885 346.054 208.261 346.054 209.636Z"
			fill="#E9EAFF" />
		<path d="M255.002 280.34H250.326C248.95 280.34 247.575 279.24 247.575 277.589V212.112H255.277" fill="#5A66F9"
			fill-opacity="0.1" />
		<path
			d="M343.304 281.716H250.326C248.125 281.716 246.199 279.79 246.199 277.589V209.636C246.199 207.435 248.125 205.509 250.326 205.509H343.304C345.504 205.509 347.43 207.435 347.43 209.636V277.589C347.43 279.79 345.504 281.716 343.304 281.716ZM250.326 208.261C249.5 208.261 248.95 209.086 248.95 209.636V277.589C248.95 278.414 249.775 278.965 250.326 278.965H343.304C344.129 278.965 344.679 278.139 344.679 277.589V209.636C344.679 209.086 344.129 208.261 343.304 208.261H250.326Z"
			fill="#3946EE" />
		<path
			d="M346.055 214.312C345.229 214.312 344.679 213.762 344.679 212.937V209.636C344.679 209.086 344.129 208.26 343.304 208.26H250.326C249.5 208.26 248.95 209.086 248.95 209.636V211.561H316.346C317.171 211.561 317.721 212.111 317.721 212.937C317.721 213.762 317.171 214.312 316.346 214.312H247.575C246.75 214.312 246.199 213.762 246.199 212.937V209.636C246.199 207.435 248.125 205.509 250.326 205.509H343.304C345.504 205.509 347.43 207.435 347.43 209.636V212.937C347.43 213.487 346.88 214.312 346.055 214.312Z"
			fill="#3946EE" />
		<path
			d="M250.601 211.012C251.151 211.012 251.426 210.737 251.426 210.186C251.426 209.636 251.151 209.361 250.601 209.361C250.05 209.361 249.775 209.636 249.775 210.186C249.775 210.461 250.05 211.012 250.601 211.012Z"
			fill="#E9EAFF" />
		<path
			d="M253.076 211.012C253.627 211.012 253.902 210.737 253.902 210.186C253.902 209.636 253.627 209.361 253.076 209.361C252.526 209.361 252.251 209.636 252.251 210.186C252.251 210.461 252.526 211.012 253.076 211.012Z"
			fill="#E9EAFF" />
		<path
			d="M255.277 211.012C255.827 211.012 256.102 210.737 256.102 210.186C256.102 209.636 255.827 209.361 255.277 209.361C254.727 209.361 254.452 209.636 254.452 210.186C254.727 210.461 255.002 211.012 255.277 211.012Z"
			fill="#E9EAFF" />
		<path
			d="M276.734 218.715H258.578C258.028 218.715 257.753 218.44 257.753 217.89C257.753 217.339 258.028 217.064 258.578 217.064H276.734C277.284 217.064 277.559 217.339 277.559 217.89C277.559 218.44 277.009 218.715 276.734 218.715Z"
			fill="#5A66F9" fill-opacity="0.2" />
		<path
			d="M251.426 218.715H250.601C250.05 218.715 249.775 218.44 249.775 217.89C249.775 217.339 250.05 217.064 250.601 217.064H251.426C251.976 217.064 252.251 217.339 252.251 217.89C252.251 218.44 251.976 218.715 251.426 218.715Z"
			fill="#5A66F9" fill-opacity="0.2" />
		<path
			d="M251.426 222.566H250.601C250.05 222.566 249.775 222.291 249.775 221.741C249.775 221.191 250.326 220.916 250.876 220.916H251.701C252.251 220.916 252.526 221.191 252.526 221.741C252.526 222.291 251.976 222.566 251.426 222.566Z"
			fill="#5A66F9" fill-opacity="0.2" />
		<path
			d="M251.426 226.418H250.601C250.05 226.418 249.775 226.143 249.775 225.593C249.775 225.043 250.05 224.767 250.601 224.767H251.426C251.976 224.767 252.251 225.043 252.251 225.593C252.251 226.143 251.976 226.418 251.426 226.418Z"
			fill="#5A66F9" fill-opacity="0.2" />
		<path
			d="M251.426 230.27H250.601C250.05 230.27 249.775 229.994 249.775 229.444C249.775 228.894 250.05 228.619 250.601 228.619H251.426C251.976 228.619 252.251 228.894 252.251 229.444C252.251 229.994 251.976 230.27 251.426 230.27Z"
			fill="#5A66F9" fill-opacity="0.2" />
		<path
			d="M251.426 234.121H250.601C250.05 234.121 249.775 233.846 249.775 233.296C249.775 232.746 250.05 232.471 250.601 232.471H251.426C251.976 232.471 252.251 232.746 252.251 233.296C252.251 233.846 251.976 234.121 251.426 234.121Z"
			fill="#5A66F9" fill-opacity="0.2" />
		<path
			d="M251.426 237.973H250.601C250.05 237.973 249.775 237.698 249.775 237.147C249.775 236.597 250.05 236.322 250.601 236.322H251.426C251.976 236.322 252.251 236.597 252.251 237.147C252.251 237.698 251.976 237.973 251.426 237.973Z"
			fill="#5A66F9" fill-opacity="0.2" />
		<path
			d="M251.426 241.824H250.601C250.05 241.824 249.775 241.549 249.775 240.999C249.775 240.449 250.326 240.174 250.876 240.174H251.701C252.251 240.174 252.526 240.449 252.526 240.999C252.526 241.549 251.976 241.824 251.426 241.824Z"
			fill="#5A66F9" fill-opacity="0.2" />
		<path
			d="M251.426 245.676H250.601C250.05 245.676 249.775 245.401 249.775 244.851C249.775 244.3 250.05 244.025 250.601 244.025H251.426C251.976 244.025 252.251 244.3 252.251 244.851C252.251 245.401 251.976 245.676 251.426 245.676Z"
			fill="#5A66F9" fill-opacity="0.2" />
		<path
			d="M251.426 249.527H250.601C250.05 249.527 249.775 249.252 249.775 248.702C249.775 248.152 250.05 247.877 250.601 247.877H251.426C251.976 247.877 252.251 248.152 252.251 248.702C252.251 249.252 251.976 249.527 251.426 249.527Z"
			fill="#5A66F9" fill-opacity="0.2" />
		<path
			d="M251.426 253.379H250.601C250.05 253.379 249.775 253.104 249.775 252.554C249.775 252.004 250.05 251.729 250.601 251.729H251.426C251.976 251.729 252.251 252.004 252.251 252.554C252.251 253.104 251.976 253.379 251.426 253.379Z"
			fill="#5A66F9" fill-opacity="0.2" />
		<path
			d="M251.426 256.956H250.601C250.05 256.956 249.775 256.68 249.775 256.13C249.775 255.58 250.05 255.305 250.601 255.305H251.426C251.976 255.305 252.251 255.58 252.251 256.13C252.251 256.68 251.976 256.956 251.426 256.956Z"
			fill="#5A66F9" fill-opacity="0.2" />
		<path
			d="M251.426 260.532H250.601C250.05 260.532 249.775 260.257 249.775 259.707C249.775 259.157 250.326 259.157 250.876 259.157H251.701C252.251 259.157 252.526 259.432 252.526 259.982C252.526 260.532 251.976 260.532 251.426 260.532Z"
			fill="#5A66F9" fill-opacity="0.2" />
		<path
			d="M251.426 264.384H250.601C250.05 264.384 249.775 264.108 249.775 263.558C249.775 263.008 250.05 262.733 250.601 262.733H251.426C251.976 262.733 252.251 263.008 252.251 263.558C252.251 264.108 251.976 264.384 251.426 264.384Z"
			fill="#5A66F9" fill-opacity="0.2" />
		<path
			d="M251.426 268.235H250.601C250.05 268.235 249.775 267.96 249.775 267.41C249.775 266.86 250.05 266.585 250.601 266.585H251.426C251.976 266.585 252.251 266.86 252.251 267.41C252.251 267.96 251.976 268.235 251.426 268.235Z"
			fill="#5A66F9" fill-opacity="0.2" />
		<path
			d="M251.426 272.087H250.601C250.05 272.087 249.775 271.812 249.775 271.261C249.775 270.711 250.05 270.436 250.601 270.436H251.426C251.976 270.436 252.251 270.711 252.251 271.261C252.251 271.812 251.976 272.087 251.426 272.087Z"
			fill="#5A66F9" fill-opacity="0.2" />
		<path
			d="M251.426 275.938H250.601C250.05 275.938 249.775 275.663 249.775 275.113C249.775 274.563 250.05 274.288 250.601 274.288H251.426C251.976 274.288 252.251 274.563 252.251 275.113C252.251 275.663 251.976 275.938 251.426 275.938Z"
			fill="#5A66F9" fill-opacity="0.2" />
		<path
			d="M272.882 222.566H258.578C258.028 222.566 257.753 222.291 257.753 221.741C257.753 221.191 258.028 220.916 258.578 220.916H272.882C273.433 220.916 273.708 221.191 273.708 221.741C273.708 222.291 273.157 222.566 272.882 222.566Z"
			fill="#5A66F9" fill-opacity="0.2" />
		<path
			d="M311.669 222.566H275.633C275.083 222.566 274.808 222.291 274.808 221.741C274.808 221.191 275.083 220.916 275.633 220.916H311.669C312.219 220.916 312.494 221.191 312.494 221.741C312.494 222.291 312.219 222.566 311.669 222.566Z"
			fill="#5A66F9" fill-opacity="0.2" />
		<path
			d="M327.349 222.566H316.896C316.346 222.566 316.07 222.291 316.07 221.741C316.07 221.191 316.346 220.916 316.896 220.916H327.349C327.899 220.916 328.174 221.191 328.174 221.741C328.174 222.291 327.899 222.566 327.349 222.566Z"
			fill="#E9EAFF" />
		<path
			d="M335.876 222.566H332.3C331.75 222.566 331.475 222.291 331.475 221.741C331.475 221.191 331.75 220.916 332.3 220.916H335.876C336.427 220.916 336.702 221.191 336.702 221.741C336.702 222.291 336.152 222.566 335.876 222.566Z"
			fill="#98A0FF" />
		<path
			d="M281.96 226.418H263.805C263.254 226.418 262.979 226.143 262.979 225.593C262.979 225.043 263.254 224.767 263.805 224.767H281.96C282.51 224.767 282.785 225.043 282.785 225.593C282.785 226.143 282.235 226.418 281.96 226.418Z"
			fill="#BB6BD9" />
		<path
			d="M281.96 241.549H263.805C263.254 241.549 262.979 241.274 262.979 240.724C262.979 240.174 263.254 240.174 263.805 240.174H281.96C282.51 240.174 282.785 240.449 282.785 240.999C282.785 241.549 282.235 241.549 281.96 241.549Z"
			fill="#BB6BD9" />
		<path
			d="M277.284 245.401H264.08C263.53 245.401 263.255 245.126 263.255 244.575C263.255 244.025 263.53 243.75 264.08 243.75H277.284C277.834 243.75 278.109 244.025 278.109 244.575C278.109 245.126 277.834 245.401 277.284 245.401Z"
			fill="#5A66F9" fill-opacity="0.2" />
		<path
			d="M312.769 245.401H280.86C280.31 245.401 280.035 245.126 280.035 244.575C280.035 244.025 280.31 243.75 280.86 243.75H312.769C313.32 243.75 313.595 244.025 313.595 244.575C313.595 245.126 313.044 245.401 312.769 245.401Z"
			fill="#5A66F9" fill-opacity="0.2" />
		<path
			d="M287.187 230.27H270.132C269.581 230.27 269.306 229.994 269.306 229.444C269.306 228.894 269.581 228.619 270.132 228.619H287.187C287.737 228.619 288.012 228.894 288.012 229.444C288.012 229.994 287.462 230.27 287.187 230.27Z"
			fill="#5A66F9" fill-opacity="0.2" />
		<path
			d="M296.815 230.27H289.662C289.112 230.27 288.837 229.994 288.837 229.444C288.837 228.894 289.112 228.619 289.662 228.619H296.815C297.365 228.619 297.64 228.894 297.64 229.444C297.64 229.994 297.365 230.27 296.815 230.27Z"
			fill="#98A0FF" />
		<path
			d="M317.171 234.121H270.132C269.581 234.121 269.306 233.846 269.306 233.296C269.306 232.746 269.581 232.471 270.132 232.471H317.171C317.721 232.471 317.996 232.746 317.996 233.296C317.996 233.846 317.721 234.121 317.171 234.121Z"
			fill="#5A66F9" fill-opacity="0.2" />
		<path
			d="M325.698 234.121H321.297C320.747 234.121 320.472 233.846 320.472 233.296C320.472 232.746 320.747 232.471 321.297 232.471H325.698C326.248 232.471 326.524 232.746 326.524 233.296C326.524 233.846 326.248 234.121 325.698 234.121Z"
			fill="#98A0FF" />
		<path
			d="M342.478 234.121H328.999C328.449 234.121 328.174 233.846 328.174 233.296C328.174 232.746 328.449 232.471 328.999 232.471H342.478C343.029 232.471 343.304 232.746 343.304 233.296C343.304 233.846 343.029 234.121 342.478 234.121Z"
			fill="#5A66F9" fill-opacity="0.2" />
		<path
			d="M302.591 237.973H270.132C269.581 237.973 269.306 237.698 269.306 237.147C269.306 236.597 269.581 236.322 270.132 236.322H302.591C303.142 236.322 303.417 236.597 303.417 237.147C303.417 237.698 303.142 237.973 302.591 237.973Z"
			fill="#5A66F9" fill-opacity="0.2" />
		<path
			d="M288.287 252.829H275.908C275.358 252.829 275.083 252.554 275.083 252.004C275.083 251.453 275.358 251.178 275.908 251.178H288.287C288.837 251.178 289.112 251.453 289.112 252.004C289.112 252.554 288.837 252.829 288.287 252.829Z"
			fill="#5A66F9" fill-opacity="0.2" />
		<path
			d="M304.517 252.829H291.313C290.763 252.829 290.488 252.554 290.488 252.004C290.488 251.453 290.763 251.178 291.313 251.178H304.517C305.067 251.178 305.342 251.453 305.342 252.004C305.342 252.554 304.792 252.829 304.517 252.829Z"
			fill="#5A66F9" fill-opacity="0.2" />
		<path
			d="M316.896 252.829H307.268C306.718 252.829 306.443 252.554 306.443 252.004C306.443 251.453 306.718 251.178 307.268 251.178H316.896C317.446 251.178 317.721 251.453 317.721 252.004C317.721 252.554 317.171 252.829 316.896 252.829Z"
			fill="#E9EAFF" />
		<path
			d="M325.423 252.829H320.472C319.922 252.829 319.646 252.554 319.646 252.004C319.646 251.453 319.922 251.178 320.472 251.178H325.423C325.973 251.178 326.249 251.453 326.249 252.004C326.249 252.554 325.698 252.829 325.423 252.829Z"
			fill="#E9EAFF" />
		<path
			d="M288.287 264.384H275.908C275.358 264.384 275.083 264.108 275.083 263.558C275.083 263.008 275.358 262.733 275.908 262.733H288.287C288.837 262.733 289.112 263.008 289.112 263.558C289.112 264.108 288.837 264.384 288.287 264.384Z"
			fill="#E9EAFF" />
		<path
			d="M316.621 275.663H275.633C275.083 275.663 274.808 275.388 274.808 274.838C274.808 274.288 275.083 274.013 275.633 274.013H316.621C317.171 274.013 317.446 274.288 317.446 274.838C317.446 275.388 317.171 275.663 316.621 275.663Z"
			fill="#BB6BD9" />
		<path
			d="M294.064 256.68H281.685C281.135 256.68 280.86 256.405 280.86 255.855C280.86 255.305 281.135 255.03 281.685 255.03H294.064C294.614 255.03 294.889 255.305 294.889 255.855C294.889 256.405 294.339 256.68 294.064 256.68Z"
			fill="#BB6BD9" />
		<path
			d="M314.42 256.68H296.54C295.989 256.68 295.714 256.405 295.714 255.855C295.714 255.305 295.989 255.03 296.54 255.03H314.42C314.97 255.03 315.245 255.305 315.245 255.855C315.245 256.405 314.97 256.68 314.42 256.68Z"
			fill="#5A66F9" fill-opacity="0.2" />
		<path
			d="M326.524 256.68H317.171C316.621 256.68 316.346 256.405 316.346 255.855C316.346 255.305 316.621 255.03 317.171 255.03H326.524C327.074 255.03 327.349 255.305 327.349 255.855C327.349 256.405 326.799 256.68 326.524 256.68Z"
			fill="#5A66F9" fill-opacity="0.2" />
		<path
			d="M332.025 256.68H328.999C328.449 256.68 328.174 256.405 328.174 255.855C328.174 255.305 328.449 255.03 328.999 255.03H332.025C332.575 255.03 332.85 255.305 332.85 255.855C332.85 256.405 332.3 256.68 332.025 256.68Z"
			fill="#98A0FF" />
		<path
			d="M296.815 260.532H281.41C280.86 260.532 280.585 260.257 280.585 259.707C280.585 259.157 280.86 258.881 281.41 258.881H296.815C297.365 258.881 297.64 259.157 297.64 259.707C297.64 259.982 297.365 260.532 296.815 260.532Z"
			fill="#5A66F9" fill-opacity="0.2" />
		<path
			d="M303.967 260.532H299.841C299.29 260.532 299.015 260.257 299.015 259.707C299.015 259.157 299.29 258.881 299.841 258.881H304.242C304.792 258.881 305.067 259.157 305.067 259.707C304.792 259.982 304.517 260.532 303.967 260.532Z"
			fill="#BB6BD9" />
		<path
			d="M338.902 260.532H306.718C306.167 260.532 305.892 260.257 305.892 259.707C305.892 259.157 306.167 258.881 306.718 258.881H338.902C339.452 258.881 339.728 259.157 339.728 259.707C339.728 259.982 339.452 260.532 338.902 260.532Z"
			fill="#5A66F9" fill-opacity="0.2" />
		<path
			d="M288.287 249.252H270.132C269.581 249.252 269.306 248.977 269.306 248.427C269.306 247.877 269.581 247.602 270.132 247.602H288.287C288.837 247.602 289.112 247.877 289.112 248.427C289.112 248.977 288.837 249.252 288.287 249.252Z"
			fill="#5A66F9" fill-opacity="0.2" />
		<path
			d="M295.989 249.252H291.313C290.763 249.252 290.488 248.977 290.488 248.427C290.488 247.877 290.763 247.602 291.313 247.602H295.989C296.54 247.602 296.815 247.877 296.815 248.427C296.815 248.977 296.54 249.252 295.989 249.252Z"
			fill="#98A0FF" />
		<path
			d="M288.287 268.235H270.132C269.581 268.235 269.306 267.96 269.306 267.41C269.306 266.86 269.581 266.585 270.132 266.585H288.287C288.837 266.585 289.112 266.86 289.112 267.41C289.112 267.96 288.837 268.235 288.287 268.235Z"
			fill="#5A66F9" fill-opacity="0.2" />
		<path
			d="M302.866 271.812H270.132C269.581 271.812 269.306 271.536 269.306 270.986C269.306 270.436 269.581 270.161 270.132 270.161H302.866C303.417 270.161 303.692 270.436 303.692 270.986C303.417 271.536 303.417 271.812 302.866 271.812Z"
			fill="#5A66F9" fill-opacity="0.2" />
		<path
			d="M316.896 271.812H305.342C304.792 271.812 304.517 271.536 304.517 270.986C304.517 270.436 304.792 270.161 305.342 270.161H316.896C317.446 270.161 317.721 270.436 317.721 270.986C317.721 271.536 317.171 271.812 316.896 271.812Z"
			fill="#E9EAFF" />
		<path
			d="M324.323 271.812H319.647C319.096 271.812 318.821 271.536 318.821 270.986C318.821 270.436 319.096 270.161 319.647 270.161H324.323C324.873 270.161 325.148 270.436 325.148 270.986C325.148 271.536 324.873 271.812 324.323 271.812Z"
			fill="#98A0FF" />
		<path
			d="M108.383 231.645V266.034C108.383 269.886 106.457 273.187 103.156 275.113L82.5249 287.218L73.4472 292.445C70.1462 294.371 66.295 294.371 62.994 292.445L33.5601 275.113C30.2591 273.187 28.3336 269.611 28.3336 266.034V231.645C28.3336 227.794 30.2591 224.492 33.5601 222.567L63.2691 205.509C66.5701 203.584 70.4213 203.584 73.7223 205.509L103.431 222.567C106.457 224.492 108.383 228.069 108.383 231.645Z"
			fill="#98A0FF" />
		<path
			d="M28.3335 247.601C27.5083 247.601 26.9581 247.051 26.9581 246.226V241.824C26.9581 240.999 27.5083 240.449 28.3335 240.449C29.1588 240.449 29.709 240.999 29.709 241.824V246.226C29.709 246.776 29.1588 247.601 28.3335 247.601Z"
			fill="#3946EE" />
		<path
			d="M68.2206 295.196C66.295 295.196 64.0943 294.646 62.4438 293.546L32.7349 276.489C29.1588 274.288 26.9581 270.436 26.9581 266.31V264.109C26.9581 263.283 27.5083 262.733 28.3335 262.733C29.1588 262.733 29.709 263.283 29.709 264.109V266.034C29.709 269.061 31.3595 272.362 34.1103 273.738L63.8193 290.795C66.5701 292.445 69.8711 292.445 72.897 290.795L102.606 273.462C105.357 271.812 107.007 269.061 107.007 265.759V231.645C107.007 228.344 105.357 225.593 102.606 223.942L72.897 206.885C70.1462 205.234 66.8452 205.234 63.8193 206.885L34.1103 224.217C31.3595 225.868 29.709 228.619 29.709 231.92C29.709 232.746 29.1588 233.296 28.3335 233.296C27.5083 233.296 26.9581 232.746 26.9581 231.92C26.9581 227.519 29.1588 223.942 32.7349 221.741L62.4438 204.684C66.0199 202.483 70.4213 202.483 74.2724 204.684L103.981 221.741C107.833 223.942 109.758 227.519 109.758 231.92V266.31C109.758 270.711 107.557 274.288 103.981 276.489L74.2724 293.821C72.3468 294.646 70.4213 295.196 68.2206 295.196Z"
			fill="#3946EE" />
		<path
			d="M59.9681 233.571L44.8385 248.702L59.9681 264.109L64.3694 259.432L53.6412 248.702L64.3694 237.973L59.9681 233.571Z"
			fill="#E9EAFF" />
		<path
			d="M76.7482 233.571L72.3468 238.248L83.0751 248.977L72.3468 259.707L76.7482 264.384L91.8777 248.977L76.7482 233.571Z"
			fill="#E9EAFF" />
	</g>
	<defs>
		<linearGradient id="paint0_linear_18625_202377" x1="172.719" y1="285.21" x2="172.719" y2="242.677"
			gradientUnits="userSpaceOnUse">
			<stop stop-color="#EEF0FE" />
			<stop offset="0.9913" stop-color="#98A0FF" />
		</linearGradient>
	</defs>
</svg>