<svg width="32" height="32" viewBox="0 0 32 32" fill="none" xmlns="http://www.w3.org/2000/svg">
<circle cx="16" cy="16" r="16" fill="white"/>
<path d="M23.4223 20.6364C24.4087 21.961 25.4259 23.3165 26.4431 24.672C24.4087 27.0749 21.8811 28.6152 18.8296 29.2621C15.4389 29.9706 12.2332 29.4469 9.11999 27.7218C11.8942 25.6578 14.6067 23.6246 17.35 21.5913C17.9665 22.1767 18.5521 22.762 19.1378 23.3165C19.7851 23.9326 19.5385 23.9634 20.3708 23.5013C21.5113 22.8544 22.4668 21.961 23.2066 20.8828C23.2374 20.8212 23.2991 20.7596 23.3299 20.698C23.2991 20.698 23.3299 20.698 23.4223 20.6364V20.6364ZM11.3085 23.3473C10.5379 23.9326 9.82894 24.4563 9.11999 25.0108C8.59598 25.4113 8.07197 25.781 7.54796 26.1815C7.33219 26.3663 7.17807 26.3663 6.93148 26.1507C4.58885 24.0558 3.1093 21.4681 2.55447 18.3875C1.99963 15.2761 2.49282 12.3187 3.97237 9.5153C4.0032 9.45369 4.06484 9.36127 4.09567 9.29965C4.09567 9.26885 4.12649 9.26885 4.18814 9.23804C6.22253 11.9182 8.28774 14.5983 10.3221 17.2785C10.2605 17.3709 10.2297 17.4325 10.168 17.4941C9.55153 18.141 8.93505 18.788 8.28774 19.4041C8.1028 19.5889 8.07197 19.743 8.19527 19.9586C8.84257 21.1909 9.73647 22.2075 10.8461 23.0392C11.0003 23.1317 11.1236 23.2241 11.3085 23.3473V23.3473ZM22.8059 4.21663C21.8195 4.92517 20.8331 5.63371 19.8468 6.31145C18.1514 7.51289 16.4561 8.74514 14.7916 9.94659C14.5758 10.1006 14.4217 10.1314 14.2368 9.91578C13.6819 9.33046 13.0963 8.80676 12.5415 8.22144C12.3873 8.06741 12.2332 8.0366 12.0175 8.12902C10.692 8.80676 9.644 9.76175 8.78093 10.9632C8.71928 11.0248 8.65763 11.1172 8.59598 11.2096C8.1028 10.5627 7.64043 9.97739 7.17807 9.36127C6.68489 8.71434 6.22253 8.06741 5.76017 7.45128C5.60605 7.23564 5.57522 7.08161 5.79099 6.86596C8.16444 4.24743 11.0927 2.70712 14.6067 2.33745C17.3808 2.02938 20.0317 2.5839 22.4976 3.90856C22.5901 3.97018 22.6826 4.00098 22.775 4.06259C22.775 4.15501 22.775 4.18582 22.8059 4.21663V4.21663ZM27.8302 22.7004C27.1829 21.8686 26.5972 21.0984 26.0116 20.3283C24.6553 18.5415 23.2991 16.724 21.912 14.9372C21.727 14.6907 21.727 14.5367 21.9428 14.3211C22.5285 13.7358 23.0833 13.1504 23.6689 12.5651C23.8231 12.4111 23.8847 12.2571 23.7614 12.0414C23.0833 10.7475 22.1586 9.66933 20.9564 8.80675C20.864 8.74514 20.7715 8.65272 20.6482 8.59111C20.7407 8.49869 20.8331 8.43708 20.8948 8.37547C22.0661 7.48209 23.2374 6.61951 24.4087 5.72613C24.5937 5.5721 24.7478 5.51049 24.9636 5.72613C27.8918 8.37547 29.4639 11.6717 29.618 15.6457C29.6796 17.9562 29.1556 20.1435 28.1076 22.2075C28.0151 22.3307 27.9227 22.4847 27.8302 22.7004V22.7004Z" fill="#231815"/>
</svg>
