<svg width="32" height="32" viewBox="0 0 32 32" fill="none" xmlns="http://www.w3.org/2000/svg">
<path d="M16 32C24.8366 32 32 24.8366 32 16C32 7.16344 24.8366 0 16 0C7.16344 0 0 7.16344 0 16C0 24.8366 7.16344 32 16 32Z" fill="url(#paint0_linear_16754_144544)"/>
<path fill-rule="evenodd" clip-rule="evenodd" d="M11.3359 10.3999V22.3999H21.3359L11.3359 10.3999Z" fill="url(#paint1_linear_16754_144544)"/>
<path fill-rule="evenodd" clip-rule="evenodd" d="M1.33594 22.3999H11.3359V10.3999L1.33594 22.3999Z" fill="white"/>
<path fill-rule="evenodd" clip-rule="evenodd" d="M3.2002 25.6001C4.1122 26.8081 5.1922 27.8881 6.4002 28.8001H25.6002C26.8082 27.8881 27.8882 26.8081 28.8002 25.6001H3.2002Z" fill="#FC9965"/>
<path fill-rule="evenodd" clip-rule="evenodd" d="M6.3999 28.7998C9.0719 30.8078 12.3999 31.9998 15.9999 31.9998C19.5999 31.9998 22.9279 30.8078 25.5999 28.7998H6.3999Z" fill="#FF2D55"/>
<path fill-rule="evenodd" clip-rule="evenodd" d="M21.4639 16.7998V25.5998H28.7998L21.4639 16.7998Z" fill="url(#paint2_linear_16754_144544)"/>
<path fill-rule="evenodd" clip-rule="evenodd" d="M21.464 22.3999H1.33594C1.83194 23.5439 2.46394 24.6159 3.19994 25.5999H21.472V22.3999H21.464Z" fill="#FFBC5B"/>
<path fill-rule="evenodd" clip-rule="evenodd" d="M14.1357 25.5998H21.4637V16.7998L14.1357 25.5998Z" fill="white"/>
<path d="M21.4639 14.3999C23.673 14.3999 25.4639 12.609 25.4639 10.3999C25.4639 8.19076 23.673 6.3999 21.4639 6.3999C19.2547 6.3999 17.4639 8.19076 17.4639 10.3999C17.4639 12.609 19.2547 14.3999 21.4639 14.3999Z" fill="#FFC95B"/>
<path d="M11.3359 8C12.4405 8 13.3359 7.10457 13.3359 6C13.3359 4.89543 12.4405 4 11.3359 4C10.2314 4 9.33594 4.89543 9.33594 6C9.33594 7.10457 10.2314 8 11.3359 8Z" fill="#FFC95B"/>
<defs>
<linearGradient id="paint0_linear_16754_144544" x1="27.3136" y1="4.6864" x2="4.6864" y2="27.3136" gradientUnits="userSpaceOnUse">
<stop stop-color="#FF2D55"/>
<stop offset="1" stop-color="#FFBC5B"/>
</linearGradient>
<linearGradient id="paint1_linear_16754_144544" x1="16.3325" y1="10.3999" x2="16.3325" y2="22.3999" gradientUnits="userSpaceOnUse">
<stop stop-color="#A524B3"/>
<stop offset="1" stop-color="#FF2D55"/>
</linearGradient>
<linearGradient id="paint2_linear_16754_144544" x1="25.1294" y1="16.7998" x2="25.1294" y2="25.5998" gradientUnits="userSpaceOnUse">
<stop stop-color="#A524B3"/>
<stop offset="1" stop-color="#FF2D55"/>
</linearGradient>
</defs>
</svg>
