<svg width="32" height="32" viewBox="0 0 32 32" fill="none" xmlns="http://www.w3.org/2000/svg">
<path d="M0 16C0 7.16344 7.16344 0 16 0C24.8366 0 32 7.16344 32 16C32 24.8366 24.8366 32 16 32C7.16344 32 0 24.8366 0 16Z" fill="black"/>
<path d="M10.2973 12.4719C13.4469 9.34011 18.5533 9.34011 21.7029 12.4719L24.4235 15.1771L21.7029 17.8824C18.5533 21.0141 13.4469 21.0141 10.2973 17.8824L7.57666 15.1771L10.2973 12.4719Z" fill="black"/>
<path fill-rule="evenodd" clip-rule="evenodd" d="M5.61133 15.1815L11.7885 9H20.212L26.3891 15.1815L16.0002 25.5661L5.61133 15.1815ZM20.7735 12.9309C18.1489 10.2947 13.8516 10.2948 11.227 12.9309L8.9807 15.1772L11.227 17.4235C13.8516 20.0596 18.1489 20.0596 20.7735 17.4235L23.0198 15.1772L20.7735 12.9309Z" fill="#0CE466"/>
<path d="M16.0001 17.1428C14.9151 17.1428 14.0347 16.2633 14.0347 15.1774C14.0347 14.0914 14.9151 13.2119 16.0001 13.2119C17.0852 13.2119 17.9656 14.0914 17.9656 15.1774C17.9656 16.2633 17.0852 17.1428 16.0001 17.1428Z" fill="black"/>
<path fill-rule="evenodd" clip-rule="evenodd" d="M12.7715 15.1772C12.7715 16.9613 14.2179 18.4062 16.0005 18.4062C17.7831 18.4062 19.2295 16.9613 19.2295 15.1772C19.2295 13.3932 17.7831 11.9482 16.0005 11.9482C14.2179 11.9482 12.7715 13.3932 12.7715 15.1772ZM14.5966 15.1772C14.5966 15.9529 15.2254 16.5811 16.0005 16.5811C16.7755 16.5811 17.4044 15.9529 17.4044 15.1772C17.4044 14.4016 16.7755 13.7733 16.0005 13.7733C15.2254 13.7733 14.5966 14.4016 14.5966 15.1772Z" fill="white"/>
</svg>
