<svg width="280" height="280" viewBox="0 0 280 280" fill="none" xmlns="http://www.w3.org/2000/svg">
<g clip-path="url(#clip0_12643_94180)">
<rect width="280" height="280" fill="#EDEDF1"/>
<rect x="48.6957" y="34.0869" width="170.435" height="270.261" rx="10" fill="white" fill-opacity="0.56"/>
<rect x="48.6957" y="34.0869" width="170.435" height="270.261" rx="10" fill="url(#paint0_linear_12643_94180)"/>
<rect x="38.9565" y="48.6956" width="165.565" height="262.957" rx="10" fill="#8589DC"/>
<rect x="38.9565" y="48.6956" width="165.565" height="262.957" rx="10" fill="url(#paint1_linear_12643_94180)"/>
<rect opacity="0.7" x="53.5652" y="92.5217" width="77.913" height="12.1739" rx="6.08696" fill="white"/>
<rect opacity="0.7" x="54.5009" y="131.791" width="73.2779" height="13.3232" rx="6.66162" fill="white"/>
<rect opacity="0.7" x="54.5009" y="169.54" width="39.9698" height="13.3233" rx="6.66164" fill="white"/>
<rect x="121.973" y="161.37" width="92.4913" height="12.0925" transform="rotate(-74.6791 121.973 161.37)" fill="white" fill-opacity="0.5"/>
<rect x="141.128" y="165.344" width="92.4913" height="15.3001" transform="rotate(-74.6791 141.128 165.344)" fill="white" fill-opacity="0.5"/>
<rect x="185.85" y="166.956" width="17.2126" height="32.5127" transform="rotate(-37.0525 185.85 166.956)" fill="#5458BA"/>
<path d="M196.25 190.256L219.145 172.97L273.096 244.429C275.758 247.955 275.058 252.972 271.532 255.634L261.406 263.279C257.88 265.941 252.863 265.241 250.201 261.714L196.25 190.256Z" fill="#8E92ED"/>
<path d="M196.25 190.256L219.145 172.97L222.395 177.274L199.499 194.56L196.25 190.256Z" fill="white" fill-opacity="0.4"/>
<path d="M224.857 228.464L247.752 211.179L250.807 215.225L227.912 232.511L224.857 228.464Z" fill="white" fill-opacity="0.4"/>
<circle cx="163.144" cy="124.188" r="49.3753" transform="rotate(-37.0525 163.144 124.188)" stroke="#8E92ED" stroke-width="16"/>
</g>
<defs>
<linearGradient id="paint0_linear_12643_94180" x1="123.687" y1="318.24" x2="118.073" y2="34.1081" gradientUnits="userSpaceOnUse">
<stop stop-color="white"/>
<stop offset="1" stop-color="white" stop-opacity="0"/>
</linearGradient>
<linearGradient id="paint1_linear_12643_94180" x1="121.739" y1="311.652" x2="120.371" y2="-54.52" gradientUnits="userSpaceOnUse">
<stop stop-color="white"/>
<stop offset="1" stop-color="white" stop-opacity="0"/>
</linearGradient>
<clipPath id="clip0_12643_94180">
<rect width="280" height="280" fill="white"/>
</clipPath>
</defs>
</svg>
