<svg width="32" height="32" viewBox="0 0 32 32" fill="none" xmlns="http://www.w3.org/2000/svg">
<path d="M0 16C0 7.16344 7.16344 0 16 0C24.8366 0 32 7.16344 32 16C32 24.8366 24.8366 32 16 32C7.16344 32 0 24.8366 0 16Z" fill="#FEDA08"/>
<path d="M22.1663 15.833C23.1924 15.572 24.1055 14.8148 24.1055 13.2961C24.1055 10.7677 21.9228 10.1816 19.1313 10.1816H8V21.5613H12.683V17.6982H18.2399C19.0965 17.6982 19.5965 18.0319 19.5965 18.8576V21.557H24.2838V18.7121C24.2838 17.1677 23.3968 16.1881 22.1663 15.833ZM18.3225 14.6308H12.683V13.5185H18.3225C18.9356 13.5185 19.3095 13.5998 19.3095 14.0747C19.3095 14.5496 18.9356 14.6308 18.3225 14.6308Z" fill="#010101"/>
</svg>
