<svg width="32" height="32" viewBox="0 0 32 32" fill="none" xmlns="http://www.w3.org/2000/svg">
<path d="M0 16C0 7.16344 7.16344 0 16 0C24.8366 0 32 7.16344 32 16C32 24.8366 24.8366 32 16 32C7.16344 32 0 24.8366 0 16Z" fill="white"/>
<path d="M26.9715 7.59842C24.8541 5.52947 21.9577 4.25437 18.7635 4.25437C12.2767 4.25437 7.018 9.51302 7.018 15.9998C7.018 22.4866 12.2767 27.7453 18.7635 27.7453C21.9577 27.7453 24.8541 26.4702 26.9715 24.4012C24.4458 27.6946 20.4708 29.818 15.9998 29.818C8.36825 29.818 2.18164 23.6314 2.18164 15.9998C2.18164 8.36825 8.36825 2.18164 15.9998 2.18164C20.4708 2.18164 24.4458 4.30505 26.9715 7.59842Z" fill="url(#paint0_linear_16740_143538)"/>
<path d="M9.98584 22.721C11.6797 24.3762 13.9969 25.3962 16.5523 25.3962C21.7418 25.3962 25.9487 21.1893 25.9487 15.9999C25.9487 10.8104 21.7418 6.60349 16.5523 6.60349C13.9969 6.60349 11.6797 7.62357 9.98584 9.27876C12.0064 6.64404 15.1865 4.94531 18.7632 4.94531C24.8685 4.94531 29.8178 9.89457 29.8178 15.9999C29.8178 22.1051 24.8685 27.0544 18.7632 27.0544C15.1865 27.0544 12.0064 25.3557 9.98584 22.721Z" fill="url(#paint1_linear_16740_143538)"/>
<path fill-rule="evenodd" clip-rule="evenodd" d="M24.2908 15.9999C24.2908 20.5788 20.5788 24.2908 15.9999 24.2908C11.421 24.2908 7.70898 20.5788 7.70898 15.9999C7.70898 11.421 11.421 7.70898 15.9999 7.70898C20.5788 7.70898 24.2908 11.421 24.2908 15.9999ZM21.5272 15.9999C21.5272 19.0525 19.0525 21.5272 15.9999 21.5272C12.9472 21.5272 10.4726 19.0525 10.4726 15.9999C10.4726 12.9472 12.9472 10.4726 15.9999 10.4726C19.0525 10.4726 21.5272 12.9472 21.5272 15.9999Z" fill="url(#paint2_linear_16740_143538)"/>
<defs>
<linearGradient id="paint0_linear_16740_143538" x1="2.18164" y1="15.5233" x2="29.818" y2="15.5233" gradientUnits="userSpaceOnUse">
<stop stop-color="#00E0FF"/>
<stop offset="1" stop-color="#562EC8"/>
</linearGradient>
<linearGradient id="paint1_linear_16740_143538" x1="2.1814" y1="15.5233" x2="29.8178" y2="15.5233" gradientUnits="userSpaceOnUse">
<stop stop-color="#00E0FF"/>
<stop offset="1" stop-color="#562EC8"/>
</linearGradient>
<linearGradient id="paint2_linear_16740_143538" x1="2.18171" y1="15.5234" x2="29.8181" y2="15.5234" gradientUnits="userSpaceOnUse">
<stop stop-color="#00E0FF"/>
<stop offset="1" stop-color="#562EC8"/>
</linearGradient>
</defs>
</svg>
