<svg width="512" height="322" viewBox="0 0 512 322" fill="none" xmlns="http://www.w3.org/2000/svg">
	<g opacity="0.15">
		<path
			d="M162.849 283.494L162.847 283.502L162.845 283.509C161.393 289.452 160.687 296.33 160.078 302.263C159.986 303.16 159.897 304.036 159.807 304.884C159.461 308.148 159.118 310.967 158.659 313.08C158.43 314.138 158.185 314.953 157.927 315.532C157.815 315.782 157.711 315.964 157.622 316.091C157.443 316.004 157.194 315.859 156.873 315.63C155.992 315.004 154.829 313.947 153.452 312.501C150.714 309.626 147.308 305.406 143.883 300.574C140.461 295.746 137.045 290.344 134.278 285.118C131.5 279.871 129.422 274.888 128.606 270.879C126.909 262.544 125.416 248.066 124.345 235.599C123.811 229.382 123.384 223.689 123.091 219.551C122.944 217.482 122.831 215.802 122.754 214.64C122.753 214.618 122.751 214.596 122.75 214.574C123.56 214.647 124.625 214.746 125.886 214.867C128.876 215.156 132.965 215.575 137.368 216.099C145.706 217.092 154.981 218.44 160.113 219.948C160.644 224.314 162.988 227.515 165.145 230.268C165.308 230.476 165.469 230.681 165.629 230.884C167.831 233.683 169.62 235.955 169.978 238.825L169.979 238.829C170.179 240.394 170.077 243.105 169.716 246.623C169.359 250.099 168.762 254.239 168.029 258.596C166.561 267.311 164.554 276.823 162.849 283.494ZM157.886 316.19C157.886 316.191 157.88 316.19 157.867 316.187C157.879 316.188 157.885 316.19 157.886 316.19Z"
			stroke="url(#paint0_linear_17379_145025)" stroke-width="3" />
		<path opacity="0.2"
			d="M124.505 218.816C124.505 218.816 126.379 260.879 130.26 272.372C134.14 283.865 151.604 309.688 153.246 309.986C154.739 310.285 142.947 287.746 139.812 276.253C136.678 264.76 131.752 242.221 131.454 226.101C131.155 209.981 130.475 215.532 130.475 215.532L124.505 218.816Z"
			fill="white" />
		<path
			d="M3.23705 174.963L3.23748 174.964L3.23894 174.967L3.25173 174.991C3.26405 175.014 3.28399 175.052 3.31164 175.102C3.36695 175.203 3.45312 175.358 3.57106 175.56C3.80695 175.965 4.1697 176.562 4.66642 177.308C5.66016 178.802 7.18809 180.894 9.3067 183.249C13.5447 187.96 20.1329 193.711 29.5266 197.862L29.5386 197.867C38.7464 202.033 52.3839 205.107 66.5002 207.267C80.5826 209.422 95.0086 210.649 105.714 211.17L105.715 211.17C116.483 211.697 139.524 214.997 165.497 218.946C173.28 220.13 181.333 221.373 189.411 222.62C208.346 225.543 227.417 228.487 243.469 230.736C254.989 232.344 267.427 234.019 280.168 235.735C318.215 240.858 358.954 246.345 385.939 251.495L385.94 251.495C437.765 261.41 486.046 294.255 491.202 298.198C492.656 299.31 494.142 301.084 495.541 303.088C496.957 305.115 498.351 307.476 499.603 309.846C502.072 314.523 504.101 319.456 504.598 322.083C504.776 322.939 504.741 323.949 504.61 324.982C504.475 326.047 504.223 327.254 503.895 328.543C503.24 331.122 502.252 334.147 501.186 337.232C500.623 338.865 500.039 340.509 499.468 342.118C497.85 346.675 496.331 350.956 495.631 353.917C495.217 355.669 495.314 358.448 495.853 361.772C496.384 365.046 497.314 368.676 498.431 372.036C499.551 375.406 500.838 378.44 502.06 380.547C502.676 381.609 503.232 382.358 503.688 382.797C503.908 383.008 504.045 383.094 504.111 383.127C504.768 382.963 505.133 382.709 505.416 382.398C505.77 382.009 506.065 381.464 506.492 380.562C506.547 380.446 506.603 380.326 506.66 380.204C507.483 378.452 508.615 376.041 511.3 373.28C512.806 371.693 515.408 369.952 518.458 368.162C521.554 366.347 525.267 364.394 529.099 362.408C529.81 362.04 530.525 361.67 531.241 361.3C538.3 357.651 545.446 353.957 550.023 350.707C554.954 347.205 557.675 343.37 559.163 340.446C559.909 338.982 560.347 337.741 560.596 336.881C560.721 336.451 560.799 336.117 560.844 335.898C560.867 335.789 560.881 335.708 560.89 335.659C560.894 335.634 560.896 335.617 560.898 335.609L560.898 335.608L560.898 335.606L560.898 335.605L560.899 335.603L560.899 335.602L561.074 334.309H562.384V335.809C562.384 334.989 562.384 334.617 562.384 334.449C562.385 334.309 562.385 334.309 562.385 334.309H562.386H562.39H562.405L562.464 334.309L562.696 334.31C562.9 334.31 563.201 334.312 563.592 334.314C564.374 334.319 565.516 334.328 566.956 334.347C569.837 334.384 573.914 334.459 578.701 334.609C583.277 334.752 590.25 333.707 597.743 331.996C605.204 330.293 613.049 327.961 619.322 325.599C625.614 323.23 635.311 318.958 643.468 315.263C647.539 313.418 651.215 311.722 653.873 310.488C655.202 309.87 656.276 309.368 657.018 309.021C657.389 308.847 657.677 308.712 657.872 308.62L658.093 308.516L658.149 308.49L658.164 308.483L658.167 308.481L658.168 308.481C658.168 308.481 658.168 308.481 658.808 309.838M3.23705 174.963L3.05261 174.605L2.7295 174.398C2.72215 174.393 2.70734 174.382 2.68639 174.365C2.63598 174.325 2.5521 174.253 2.45175 174.148C2.25051 173.937 1.99177 173.604 1.79585 173.133C1.42932 172.254 1.16972 170.622 2.49919 167.963C3.54875 165.864 4.86895 163.751 6.20053 161.619C6.71666 160.793 7.2345 159.965 7.73895 159.133C9.47094 156.277 11.1054 153.294 11.4513 150.62C11.4763 150.432 11.5024 150.192 11.5339 149.901C11.8802 146.708 12.8778 137.507 20.1868 126.535C28.1643 114.56 43.7669 100.336 74.6335 89.751L74.6345 89.7507C136.445 68.5033 196.509 70.4286 222.128 71.9181L222.137 71.9186C234.761 72.5792 262.216 78.4205 295.089 90.2289C327.929 102.025 366.045 119.73 400.009 144.033C433.974 168.336 466.012 201.741 491.202 230.156C500.313 240.434 508.513 250.042 515.585 258.328C518.288 261.494 520.826 264.468 523.188 267.213C527.451 272.168 531.144 276.382 534.178 279.619C537.175 282.816 539.641 285.182 541.426 286.324C544.668 288.397 547.221 289.788 549.742 290.653C552.289 291.528 554.726 291.839 557.71 291.859C560.279 291.876 563.313 291.674 567.195 291.416C567.761 291.379 568.344 291.34 568.947 291.301C573.713 290.989 579.763 290.626 587.794 290.44C603.789 290.07 623.804 292.109 640.273 294.677C648.502 295.96 655.818 297.371 661.276 298.67C664.007 299.32 666.25 299.937 667.901 300.489C668.728 300.766 669.381 301.018 669.862 301.24C670.101 301.351 670.282 301.447 670.412 301.527C670.482 301.569 670.527 301.6 670.554 301.62C670.58 301.64 670.588 301.648 670.584 301.644C670.979 302.039 671.226 302.335 671.373 302.553C671.379 302.562 671.385 302.57 671.39 302.579C671.374 302.589 671.357 302.6 671.338 302.612C670.865 302.905 670.091 303.221 668.872 303.7L668.7 303.767C667.564 304.213 666.166 304.761 664.594 305.492L664.556 305.51L664.519 305.527L664.481 305.544L664.444 305.562L664.407 305.579L664.371 305.596L664.334 305.613L664.297 305.63L664.261 305.647L664.225 305.664L664.189 305.681L664.153 305.697L664.117 305.714L664.081 305.731L664.046 305.747L664.01 305.764L663.975 305.78L663.94 305.796L663.905 305.812L663.87 305.829L663.836 305.845L663.801 305.861L663.767 305.877L663.733 305.893L663.699 305.909L663.665 305.924L663.631 305.94L663.597 305.956L663.564 305.971L663.53 305.987L663.497 306.002L663.464 306.018L663.431 306.033L663.398 306.048L663.365 306.064L663.333 306.079L663.3 306.094L663.268 306.109L663.236 306.124L663.204 306.139L663.172 306.154L663.14 306.168L663.109 306.183L663.077 306.198L663.046 306.212L663.014 306.227L662.983 306.241L662.952 306.256L662.922 306.27L662.891 306.284L662.86 306.298L662.83 306.313L662.8 306.327L662.769 306.341L662.739 306.355L662.71 306.369L662.68 306.382L662.65 306.396L662.621 306.41L662.591 306.424L662.562 306.437L662.533 306.451L662.504 306.464L662.475 306.478L662.446 306.491L662.418 306.504L662.389 306.518L662.361 306.531L662.333 306.544L662.305 306.557L662.277 306.57L662.249 306.583L662.221 306.596L662.194 306.609L662.166 306.621L662.139 306.634L662.112 306.647L662.084 306.659L662.057 306.672L662.031 306.684L662.004 306.697L661.977 306.709L661.951 306.721L661.925 306.734L661.898 306.746L661.872 306.758L661.846 306.77L661.82 306.782L661.795 306.794L661.769 306.806L661.744 306.818L661.718 306.83L661.693 306.841L661.668 306.853L661.643 306.865L661.618 306.876L661.593 306.888L661.569 306.899L661.544 306.911L661.52 306.922L661.495 306.933L661.471 306.945L661.447 306.956L661.423 306.967L661.399 306.978L661.376 306.989L661.352 307L661.329 307.011L661.305 307.022L661.282 307.033L661.259 307.043L661.236 307.054L661.213 307.065L661.19 307.075L661.167 307.086L661.145 307.096L661.122 307.107L661.1 307.117L661.078 307.128L661.056 307.138L661.034 307.148L661.012 307.158L660.99 307.168L660.969 307.178L660.947 307.188L660.926 307.198L660.904 307.208L660.883 307.218L660.862 307.228L660.841 307.238L660.82 307.247L660.799 307.257L660.779 307.267L660.758 307.276L660.738 307.286L660.717 307.295L660.697 307.305L660.677 307.314L660.657 307.323L660.637 307.333L660.617 307.342L660.598 307.351L660.578 307.36L660.558 307.369L660.539 307.378L660.52 307.387L660.501 307.396L660.482 307.405L660.463 307.414L660.444 307.422L660.425 307.431L660.406 307.44L660.388 307.448L660.369 307.457L660.351 307.466L660.333 307.474L660.315 307.482L660.297 307.491L660.279 307.499L660.261 307.507L660.243 307.516L660.226 307.524L660.208 307.532L660.191 307.54L660.173 307.548L660.156 307.556L660.139 307.564L660.122 307.572L660.105 307.58L660.088 307.588L660.071 307.596L660.055 307.603L660.038 307.611L660.022 307.619L660.005 307.626L659.989 307.634L659.973 307.641L659.957 307.649L659.941 307.656L659.925 307.664L659.909 307.671L659.894 307.678L659.878 307.685L659.863 307.693L659.847 307.7L659.832 307.707L659.817 307.714L659.802 307.721L659.787 307.728L659.772 307.735L659.757 307.742L659.742 307.749L659.728 307.756L659.713 307.762L659.699 307.769L659.684 307.776L659.67 307.782L659.656 307.789L659.642 307.796L659.628 307.802L659.614 307.809L659.6 307.815L659.586 307.821L659.573 307.828L659.559 307.834L659.545 307.84L659.532 307.846L659.519 307.853L659.506 307.859L659.492 307.865L659.479 307.871L659.466 307.877L659.454 307.883L659.441 307.889L659.428 307.895L659.416 307.901L659.403 307.907L659.391 307.912L659.378 307.918L659.366 307.924L659.354 307.929L659.342 307.935L659.33 307.941L659.318 307.946L659.306 307.952L659.294 307.957L659.282 307.963L659.271 307.968L659.259 307.973L659.248 307.979L659.236 307.984L659.225 307.989L659.214 307.995L659.203 308L659.192 308.005L659.181 308.01L659.17 308.015L659.159 308.02L659.148 308.025L659.138 308.03L659.127 308.035L659.117 308.04L659.106 308.045L659.096 308.049L659.086 308.054L659.075 308.059L659.065 308.064L659.055 308.068L659.045 308.073L659.035 308.078L659.026 308.082L659.016 308.087L659.006 308.091L658.997 308.096L658.987 308.1L658.978 308.104L658.968 308.109L658.959 308.113L658.95 308.117L658.941 308.122L658.932 308.126L658.922 308.13L658.914 308.134L658.905 308.138L658.896 308.142L658.887 308.146L658.879 308.15L658.87 308.154L658.862 308.158L658.853 308.162L658.845 308.166L658.836 308.17L658.828 308.174L658.82 308.178L658.812 308.181L658.804 308.185L658.796 308.189L658.788 308.193L658.78 308.196L658.772 308.2L658.765 308.203L658.757 308.207L658.75 308.21L658.742 308.214L658.735 308.217L658.727 308.221L658.72 308.224L658.713 308.228L658.706 308.231L658.699 308.234L658.691 308.237L658.685 308.241L658.678 308.244L658.671 308.247L658.664 308.25L658.657 308.253L658.651 308.257L658.644 308.26L658.637 308.263L658.631 308.266L658.625 308.269L658.618 308.272L658.612 308.274L658.606 308.277L658.599 308.28L658.593 308.283L658.587 308.286L658.581 308.289L658.575 308.291L658.569 308.294L658.564 308.297L658.558 308.3L658.552 308.302L658.547 308.305L658.541 308.308L658.535 308.31L658.53 308.313L658.524 308.315L658.519 308.318L658.514 308.32L658.509 308.323L658.503 308.325L658.498 308.327L658.493 308.33L658.488 308.332L658.483 308.334L658.478 308.337L658.473 308.339L658.468 308.341L658.464 308.343L658.459 308.346L658.454 308.348L658.45 308.35L658.445 308.352L658.44 308.354L658.436 308.356L658.432 308.358L658.427 308.36L658.423 308.362L658.419 308.364L658.414 308.366L658.41 308.368L658.406 308.37L658.402 308.372L658.398 308.374L658.394 308.376L658.39 308.378L658.386 308.379L658.382 308.381L658.379 308.383L658.375 308.385L658.371 308.386L658.368 308.388L658.364 308.39L658.36 308.391L658.357 308.393L658.353 308.395L658.35 308.396L658.347 308.398L658.343 308.399L658.34 308.401L658.337 308.402L658.333 308.404L658.33 308.405L658.327 308.407L658.324 308.408L658.321 308.41L658.318 308.411L658.315 308.413L658.312 308.414L658.309 308.415L658.307 308.417L658.304 308.418L658.301 308.419L658.298 308.42L658.296 308.422L658.293 308.423L658.29 308.424L658.288 308.425L658.285 308.426L658.283 308.428L658.28 308.429L658.278 308.43L658.276 308.431L658.273 308.432L658.271 308.433L658.269 308.434L658.266 308.435L658.264 308.436L658.262 308.437L658.26 308.438L658.258 308.439L658.256 308.44L658.254 308.441L658.252 308.442L658.25 308.443L658.248 308.444L658.246 308.445L658.244 308.445L658.242 308.446L658.241 308.447L658.239 308.448L658.237 308.449L658.236 308.45L658.234 308.45L658.232 308.451L658.231 308.452L658.229 308.453L658.228 308.453L658.226 308.454L658.225 308.455L658.223 308.455L658.222 308.456L658.22 308.457L658.219 308.457L658.218 308.458L658.216 308.458L658.215 308.459L658.214 308.46L658.213 308.46L658.211 308.461L658.21 308.461L658.209 308.462L658.208 308.462L658.207 308.463L658.206 308.463L658.205 308.464L658.204 308.464L658.203 308.465L658.202 308.465L658.201 308.466L658.2 308.466L658.199 308.467L658.198 308.467L658.197 308.467L658.196 308.468L658.195 308.468L658.195 308.469L658.194 308.469L658.193 308.469L658.192 308.47L658.192 308.47L658.191 308.47L658.19 308.471L658.19 308.471L658.189 308.471L658.188 308.471L658.188 308.472L658.187 308.472L658.187 308.472L658.186 308.473L658.186 308.473L658.185 308.473L658.185 308.473L658.184 308.473L658.184 308.474L658.183 308.474L658.183 308.474L658.182 308.474L658.182 308.475L658.181 308.475L658.18 308.475L658.18 308.476L658.179 308.476L658.179 308.476L658.178 308.476L658.178 308.476L658.177 308.477L658.177 308.477L658.176 308.477L658.176 308.477L658.175 308.478L658.808 309.838M3.23705 174.963L3.23679 174.963L3.23705 174.963ZM658.808 309.838L658.168 308.481L658.175 308.478L658.808 309.838ZM671.588 302.428C671.589 302.427 671.586 302.432 671.577 302.44C671.583 302.432 671.587 302.428 671.588 302.428ZM385.658 252.969C358.717 247.826 318.046 242.349 280.009 237.227C267.258 235.51 254.804 233.833 243.261 232.221C227.198 229.971 208.108 227.024 189.168 224.101L385.658 252.969Z"
			stroke="url(#paint1_linear_17379_145025)" stroke-width="3" />
		<path
			d="M223.461 70.0307C223.915 69.491 224.435 68.8624 224.992 68.1656C226.864 65.8259 229.201 62.6749 230.975 59.5117L230.979 59.505L230.983 59.4983C231.478 58.5935 231.95 57.3537 232.443 55.9509C232.678 55.2799 232.927 54.5479 233.19 53.7712L233.241 53.6222C233.524 52.7872 233.827 51.8976 234.157 50.9573C235.474 47.1986 237.217 42.6531 239.796 37.8435C244.943 28.2419 253.432 17.5658 268.541 10.1204L268.544 10.1191C283.813 2.55882 293.128 1.09656 298.529 1.71973C303.841 2.33268 305.088 4.85598 305.189 5.45336C305.185 5.47887 305.173 5.57471 305.122 5.76667C305.048 6.0456 304.923 6.42001 304.741 6.89754C304.378 7.85085 303.835 9.0983 303.153 10.6058C302.753 11.492 302.306 12.4639 301.827 13.5065C300.692 15.9774 299.374 18.8456 298.051 21.9129C294.305 30.5977 290.344 41.2509 290.112 49.9312C289.881 58.546 292.446 69.3086 295.011 77.807C296.3 82.0797 297.603 85.824 298.583 88.5007C298.755 88.9695 298.917 89.4057 299.067 89.8065L259.796 76.716L259.711 76.6876L259.623 76.6696L239.985 72.6413L239.951 72.6344L239.917 72.6291L223.461 70.0307Z"
			stroke="white" stroke-width="3" />
		<mask id="path-5-inside-1_17379_145025" fill="white">
			<path fill-rule="evenodd" clip-rule="evenodd"
				d="M587.757 288.94C619.997 288.194 668.209 297.15 671.642 300.583C674.203 303.255 672.861 303.768 669.226 305.157C667.987 305.63 666.483 306.205 664.776 307.001L658.358 309.986C658.358 309.986 632.088 322.375 619.4 327.152C606.713 331.928 587.757 336.555 578.204 336.257C568.651 335.958 561.934 335.958 561.934 335.958C561.934 335.958 560.74 344.764 550.441 352.078C545.716 355.434 538.352 359.26 531.246 362.953C522.863 367.309 514.84 371.479 511.931 374.468C509.442 377.095 508.394 379.306 507.586 381.012C506.649 382.988 506.034 384.286 503.871 384.767C499.841 385.662 491.781 361.93 493.721 353.72C494.427 350.484 496.108 345.694 497.829 340.786C500.475 333.242 503.22 325.418 502.677 322.524C504.683 327.94 502.646 337.128 500.686 345.97C499.728 350.289 498.789 354.525 498.349 358.198C497.005 369.393 503.871 379.99 503.871 379.99C503.871 379.99 505.812 376.259 511.334 371.482C513.15 369.869 517.88 367.352 523.56 364.329C534.69 358.405 549.471 350.539 553.128 343.72C557.009 336.555 545.814 332.226 538.5 330.137C540.515 330.585 542.94 331.144 545.608 331.76C548.276 332.376 551.187 333.047 554.173 333.719C564.4 335.977 580.064 333.153 594.75 330.505C596.567 330.177 598.37 329.852 600.145 329.54C616.415 326.704 660 304.464 660 304.464C660 304.464 661.343 301.329 652.089 301.18C649.334 301.135 640.876 301.369 629.773 301.675C603.582 302.398 562.671 303.527 547.157 302.374C534.856 301.466 529.085 298.777 524.262 296.529C520.365 294.714 517.087 293.186 511.484 293.12C502.528 292.97 494.916 297.896 491.333 300.732C491.03 300.327 490.657 299.991 490.309 299.677C490.144 299.528 489.985 299.384 489.841 299.239C484.766 295.508 436.703 262.67 385.208 252.819C377.595 251.475 368.938 249.983 359.684 248.49C354.907 246.55 350.728 244.609 349.235 243.266C344.758 239.087 350.28 225.802 360.878 218.936C367.767 214.473 373.08 216.38 381.86 219.533C386.585 221.23 392.315 223.288 399.835 224.907C421.18 229.534 448.793 222.817 456.107 219.832C463.421 216.847 442.226 189.532 420.881 178.934C408.816 172.901 398.734 178.815 389.313 184.341C382.184 188.523 375.434 192.482 368.49 190.875C361.941 189.359 352.461 182.226 341.741 174.161C326.072 162.373 307.755 148.592 292.068 147.44C279.52 146.518 267.107 153.946 255.021 161.777C258.585 164.466 262.114 166.942 264.456 168.336C270.725 172.068 279.382 185.203 281.919 198.935C283.232 206.038 286.821 214.858 289.856 222.317C292.689 229.28 295.039 235.057 294.607 237.146C293.711 241.475 268.038 237.296 253.41 223.713C242.656 213.726 223.833 191.961 213.077 178.05C195.364 174.929 188.489 160.481 184.118 151.294C183.373 149.73 182.702 148.318 182.061 147.141C181.035 145.286 180.045 143.329 179.067 141.396C175.639 134.616 172.361 128.135 168.18 127.438C162.807 126.692 145.94 134.752 144.895 138.782C143.85 142.812 141.462 148.037 136.238 148.783C132.761 149.28 98.414 152.288 70.5448 154.729C56.5361 155.956 44.1641 157.04 38.1725 157.589C20.261 159.231 1.90171 175.65 1.90171 175.65C1.90171 175.65 -1.68059 173.262 1.1554 167.291C2.25448 164.978 3.73467 162.596 5.17025 160.287C7.43895 156.638 9.59625 153.167 9.96192 150.425C9.98588 150.245 10.0113 150.014 10.042 149.735C10.7763 143.06 14.5433 108.82 74.1448 88.3316C136.238 66.987 196.54 69.0767 222.213 70.4201C248.035 71.7634 332.667 94.0035 400.88 142.812C447.329 176.048 490.11 226.172 516.734 257.365C529.209 271.981 538.136 282.44 542.232 285.059C551.453 290.957 554.281 290.769 567.094 289.919C572.118 289.586 578.676 289.151 587.757 288.94ZM111.245 119.697C118.568 118.68 126.232 117.616 131.014 116.094C140.716 112.96 151.612 106.691 139.223 101.765C126.984 96.9888 83.5483 117.886 83.5483 117.886C76.9807 120.871 86.832 126.095 92.9518 123.259C96.1013 121.799 103.481 120.775 111.245 119.697Z" />
		</mask>
		<path
			d="M671.642 300.583L673.808 298.507L673.786 298.484L673.764 298.461L671.642 300.583ZM587.757 288.94L587.687 285.941H587.687L587.757 288.94ZM669.226 305.157L670.296 307.959V307.959L669.226 305.157ZM664.776 307.001L666.041 309.721L666.045 309.72L664.776 307.001ZM658.358 309.986L657.093 307.266L657.085 307.27L657.078 307.273L658.358 309.986ZM619.4 327.152L618.343 324.344L619.4 327.152ZM561.934 335.958V332.958H559.314L558.962 335.555L561.934 335.958ZM550.441 352.078L548.704 349.632L550.441 352.078ZM531.246 362.953L532.63 365.615L531.246 362.953ZM511.931 374.468L509.781 372.376L509.767 372.39L509.754 372.404L511.931 374.468ZM507.586 381.012L510.297 382.297L507.586 381.012ZM503.871 384.767L503.22 381.838H503.22L503.871 384.767ZM493.721 353.72L496.641 354.41L496.647 354.385L496.652 354.36L493.721 353.72ZM497.829 340.786L500.66 341.779L497.829 340.786ZM502.677 322.524L505.49 321.482L499.729 323.077L502.677 322.524ZM500.686 345.97L497.757 345.321L500.686 345.97ZM498.349 358.198L501.327 358.556L498.349 358.198ZM503.871 379.99L501.353 381.622L504.155 385.946L506.533 381.374L503.871 379.99ZM511.334 371.482L513.297 373.751L513.312 373.738L513.327 373.725L511.334 371.482ZM523.56 364.329L524.969 366.977L523.56 364.329ZM553.128 343.72L550.49 342.291L550.484 342.302L553.128 343.72ZM538.5 330.137L539.151 327.208L537.676 333.021L538.5 330.137ZM545.608 331.76L546.282 328.837L546.282 328.837L545.608 331.76ZM554.173 333.719L553.514 336.646L553.526 336.648L554.173 333.719ZM594.75 330.505L594.217 327.552L594.75 330.505ZM600.145 329.54L599.63 326.584L599.626 326.585L600.145 329.54ZM660 304.464L661.363 307.136L662.33 306.643L662.757 305.645L660 304.464ZM652.089 301.18L652.137 298.18L652.089 301.18ZM629.773 301.675L629.69 298.676L629.773 301.675ZM547.157 302.374L547.38 299.382L547.378 299.382L547.157 302.374ZM524.262 296.529L522.995 299.249V299.249L524.262 296.529ZM511.484 293.12L511.434 296.119L511.441 296.119L511.448 296.119L511.484 293.12ZM491.333 300.732L488.933 302.532L490.781 304.996L493.195 303.084L491.333 300.732ZM490.309 299.677L492.32 297.45L492.32 297.45L490.309 299.677ZM489.841 299.239L491.962 297.118L491.801 296.957L491.618 296.822L489.841 299.239ZM385.208 252.819L385.771 249.872L385.75 249.868L385.729 249.864L385.208 252.819ZM359.684 248.49L358.555 251.27L358.87 251.398L359.206 251.452L359.684 248.49ZM349.235 243.266L347.188 245.459L347.208 245.478L347.228 245.496L349.235 243.266ZM360.878 218.936L359.247 216.418L360.878 218.936ZM381.86 219.533L382.873 216.71L381.86 219.533ZM399.835 224.907L400.471 221.975L400.467 221.974L399.835 224.907ZM456.107 219.832L457.241 222.609L456.107 219.832ZM420.881 178.934L419.54 181.617L419.547 181.621L420.881 178.934ZM389.313 184.341L387.795 181.754L389.313 184.341ZM368.49 190.875L367.814 193.798L368.49 190.875ZM341.741 174.161L343.544 171.764L341.741 174.161ZM292.068 147.44L292.288 144.448L292.068 147.44ZM255.021 161.777L253.389 159.259L249.791 161.591L253.214 164.172L255.021 161.777ZM264.456 168.336L265.99 165.758V165.758L264.456 168.336ZM281.919 198.935L284.87 198.39H284.87L281.919 198.935ZM289.856 222.317L292.635 221.187V221.187L289.856 222.317ZM294.607 237.146L297.545 237.754L294.607 237.146ZM253.41 223.713L255.452 221.514L253.41 223.713ZM213.077 178.05L215.45 176.215L214.74 175.296L213.598 175.095L213.077 178.05ZM184.118 151.294L186.827 150.005H186.827L184.118 151.294ZM182.061 147.141L184.697 145.708L184.692 145.698L184.686 145.688L182.061 147.141ZM179.067 141.396L181.744 140.042V140.042L179.067 141.396ZM168.18 127.438L168.673 124.479L168.633 124.472L168.593 124.467L168.18 127.438ZM144.895 138.782L147.799 139.535V139.535L144.895 138.782ZM136.238 148.783L135.814 145.813H135.814L136.238 148.783ZM70.5448 154.729L70.8066 157.718L70.5448 154.729ZM38.1725 157.589L38.4464 160.577H38.4464L38.1725 157.589ZM1.90171 175.65L0.237618 178.146L2.17022 179.435L3.90156 177.886L1.90171 175.65ZM1.1554 167.291L3.86523 168.579H3.86523L1.1554 167.291ZM5.17025 160.287L7.71809 161.871H7.71809L5.17025 160.287ZM9.96192 150.425L12.9356 150.821H12.9356L9.96192 150.425ZM10.042 149.735L7.05997 149.407L10.042 149.735ZM74.1448 88.3316L73.1695 85.4945L74.1448 88.3316ZM222.213 70.4201L222.056 73.416L222.057 73.416L222.213 70.4201ZM400.88 142.812L402.626 140.373L400.88 142.812ZM516.734 257.365L519.016 255.417L516.734 257.365ZM542.232 285.059L540.615 287.587L542.232 285.059ZM567.094 289.919L566.896 286.926L567.094 289.919ZM131.014 116.094L131.923 118.953L131.936 118.949L131.014 116.094ZM111.245 119.697L111.658 122.668L111.245 119.697ZM139.223 101.765L140.332 98.9775L140.323 98.9739L140.314 98.9705L139.223 101.765ZM83.5483 117.886L84.7897 120.617L84.8194 120.603L84.8489 120.589L83.5483 117.886ZM92.9518 123.259L94.2132 125.981L92.9518 123.259ZM673.764 298.461C673.153 297.851 672.351 297.434 671.747 297.155C671.06 296.837 670.238 296.526 669.326 296.221C667.498 295.609 665.111 294.957 662.315 294.292C656.712 292.958 649.275 291.526 640.965 290.23C624.368 287.642 604.059 285.562 587.687 285.941L587.826 291.939C603.696 291.572 623.613 293.597 640.04 296.158C648.242 297.437 655.517 298.841 660.926 300.129C663.637 300.774 665.832 301.379 667.423 301.911C668.221 302.178 668.818 302.411 669.23 302.601C669.725 302.83 669.703 302.886 669.521 302.704L673.764 298.461ZM670.296 307.959C671.164 307.628 672.059 307.288 672.79 306.939C673.442 306.627 674.465 306.088 675.17 305.134C675.572 304.59 675.873 303.911 675.948 303.121C676.021 302.354 675.863 301.67 675.643 301.119C675.242 300.111 674.503 299.232 673.808 298.507L669.476 302.658C669.74 302.934 669.908 303.134 670.01 303.272C670.116 303.416 670.106 303.432 670.069 303.339C670.027 303.234 669.937 302.952 669.975 302.555C670.014 302.135 670.177 301.794 670.345 301.568C670.489 301.372 670.606 301.302 670.566 301.33C670.53 301.354 670.424 301.419 670.204 301.525C669.741 301.746 669.105 301.991 668.155 302.354L670.296 307.959ZM666.045 309.72C667.644 308.973 669.058 308.432 670.296 307.959L668.155 302.354C666.917 302.827 665.322 303.436 663.507 304.283L666.045 309.72ZM659.623 312.706L666.041 309.721L663.511 304.281L657.093 307.266L659.623 312.706ZM620.457 329.959C626.905 327.532 636.728 323.202 644.875 319.51C648.962 317.658 652.652 315.956 655.319 314.717C656.652 314.098 657.731 313.594 658.477 313.245C658.85 313.07 659.139 312.934 659.336 312.842C659.434 312.795 659.509 312.76 659.56 312.736C659.585 312.724 659.605 312.715 659.618 312.709C659.624 312.706 659.629 312.704 659.632 312.702C659.634 312.701 659.635 312.701 659.636 312.7C659.636 312.7 659.637 312.7 659.637 312.7C659.637 312.7 659.637 312.7 658.358 309.986C657.078 307.273 657.078 307.273 657.078 307.273C657.078 307.273 657.078 307.273 657.077 307.273C657.076 307.274 657.075 307.274 657.074 307.275C657.071 307.276 657.066 307.279 657.06 307.282C657.048 307.287 657.029 307.296 657.004 307.308C656.955 307.331 656.881 307.366 656.783 307.412C656.589 307.503 656.302 307.638 655.932 307.811C655.191 308.158 654.118 308.659 652.791 309.276C650.136 310.509 646.465 312.203 642.399 314.045C634.239 317.742 624.583 321.995 618.343 324.344L620.457 329.959ZM578.11 339.255C583.287 339.417 590.723 338.26 598.294 336.532C605.93 334.789 613.973 332.4 620.457 329.959L618.343 324.344C612.141 326.679 604.361 328.992 596.959 330.682C589.492 332.387 582.674 333.395 578.298 333.258L578.11 339.255ZM561.934 335.958C561.934 338.958 561.934 338.958 561.934 338.958C561.934 338.958 561.934 338.958 561.934 338.958C561.935 338.958 561.935 338.958 561.935 338.958C561.936 338.958 561.937 338.958 561.938 338.958C561.941 338.958 561.946 338.958 561.952 338.958C561.964 338.958 561.983 338.958 562.008 338.958C562.058 338.958 562.133 338.958 562.233 338.959C562.432 338.959 562.729 338.96 563.115 338.963C563.888 338.967 565.019 338.976 566.448 338.995C569.306 339.032 573.355 339.106 578.11 339.255L578.298 333.258C573.5 333.108 569.414 333.033 566.526 332.996C565.082 332.977 563.936 332.967 563.151 332.963C562.758 332.96 562.456 332.959 562.25 332.959C562.148 332.958 562.069 332.958 562.016 332.958C561.99 332.958 561.97 332.958 561.956 332.958C561.949 332.958 561.944 332.958 561.94 332.958C561.939 332.958 561.937 332.958 561.936 332.958C561.936 332.958 561.935 332.958 561.935 332.958C561.935 332.958 561.935 332.958 561.935 332.958C561.934 332.958 561.934 332.958 561.934 335.958ZM552.178 354.524C557.764 350.558 560.942 346.137 562.723 342.636C563.611 340.892 564.149 339.384 564.468 338.285C564.628 337.735 564.733 337.286 564.801 336.958C564.835 336.795 564.859 336.661 564.876 336.561C564.885 336.511 564.891 336.469 564.896 336.436C564.899 336.419 564.901 336.404 564.903 336.392C564.904 336.386 564.905 336.38 564.905 336.375C564.906 336.372 564.906 336.37 564.906 336.368C564.906 336.366 564.907 336.365 564.907 336.364C564.907 336.363 564.907 336.361 561.934 335.958C558.962 335.555 558.962 335.553 558.962 335.552C558.962 335.552 558.962 335.55 558.962 335.549C558.963 335.547 558.963 335.546 558.963 335.544C558.963 335.541 558.964 335.539 558.964 335.537C558.965 335.533 558.965 335.531 558.965 335.531C558.965 335.532 558.964 335.54 558.961 335.556C558.955 335.588 558.944 335.651 558.925 335.743C558.887 335.926 558.819 336.222 558.706 336.612C558.479 337.392 558.074 338.543 557.376 339.915C555.986 342.645 553.417 346.285 548.704 349.632L552.178 354.524ZM532.63 365.615C539.659 361.962 547.244 358.028 552.178 354.524L548.704 349.632C544.189 352.839 537.045 356.559 529.863 360.291L532.63 365.615ZM514.082 376.56C515.205 375.405 517.586 373.801 521.029 371.825C524.381 369.902 528.422 367.801 532.63 365.615L529.863 360.291C525.688 362.461 521.525 364.623 518.043 366.621C514.652 368.567 511.566 370.541 509.781 372.376L514.082 376.56ZM510.297 382.297C511.066 380.673 511.952 378.808 514.109 376.531L509.754 372.404C506.933 375.382 505.722 377.939 504.875 379.727L510.297 382.297ZM504.522 387.695C506.19 387.325 507.472 386.563 508.467 385.402C509.322 384.405 509.878 383.181 510.297 382.297L504.875 379.727C504.632 380.241 504.457 380.608 504.284 380.923C504.117 381.227 503.998 381.396 503.911 381.498C503.835 381.586 503.778 381.63 503.718 381.665C503.652 381.704 503.508 381.774 503.22 381.838L504.522 387.695ZM490.802 353.03C490.175 355.683 490.401 359.192 490.961 362.641C491.536 366.189 492.53 370.054 493.711 373.604C494.884 377.135 496.285 380.484 497.717 382.953C498.422 384.169 499.224 385.329 500.119 386.189C500.883 386.924 502.464 388.153 504.522 387.695L503.22 381.838C504.271 381.605 504.718 382.288 504.278 381.864C503.968 381.566 503.494 380.955 502.907 379.943C501.756 377.957 500.507 375.028 499.404 371.712C498.308 368.414 497.399 364.863 496.883 361.68C496.351 358.398 496.298 355.862 496.641 354.41L490.802 353.03ZM494.998 339.793C493.305 344.619 491.545 349.62 490.79 353.081L496.652 354.36C497.309 351.348 498.91 346.769 500.66 341.779L494.998 339.793ZM499.729 323.077C499.76 323.242 499.776 323.827 499.566 325.016C499.371 326.122 499.029 327.491 498.568 329.073C497.647 332.24 496.329 335.998 494.998 339.793L500.66 341.779C501.975 338.03 503.353 334.104 504.329 330.75C504.818 329.071 505.226 327.47 505.475 326.06C505.71 324.731 505.866 323.253 505.626 321.972L499.729 323.077ZM503.615 346.62C504.587 342.233 505.622 337.578 506.146 333.33C506.66 329.163 506.757 324.902 505.49 321.482L499.864 323.566C500.603 325.562 500.684 328.603 500.191 332.595C499.709 336.505 498.745 340.865 497.757 345.321L503.615 346.62ZM501.327 358.556C501.747 355.059 502.648 350.98 503.615 346.62L497.757 345.321C496.809 349.598 495.832 353.99 495.37 357.841L501.327 358.556ZM503.871 379.99C506.389 378.359 506.389 378.36 506.39 378.36C506.39 378.361 506.39 378.361 506.391 378.362C506.391 378.362 506.391 378.363 506.391 378.363C506.392 378.363 506.392 378.363 506.391 378.363C506.391 378.362 506.388 378.358 506.384 378.351C506.376 378.339 506.362 378.317 506.342 378.285C506.302 378.221 506.24 378.119 506.158 377.981C505.994 377.706 505.755 377.288 505.467 376.749C504.89 375.667 504.13 374.107 503.408 372.221C501.948 368.404 500.737 363.478 501.327 358.556L495.37 357.841C494.617 364.113 496.167 370.083 497.804 374.364C498.631 376.527 499.503 378.315 500.172 379.571C500.507 380.199 500.793 380.697 501 381.045C501.103 381.219 501.187 381.356 501.247 381.453C501.277 381.501 501.301 381.54 501.319 381.568C501.328 381.582 501.335 381.594 501.341 381.603C501.344 381.607 501.346 381.611 501.349 381.614C501.35 381.616 501.35 381.617 501.351 381.618C501.352 381.619 501.352 381.62 501.352 381.62C501.353 381.621 501.353 381.622 503.871 379.99ZM509.372 369.213C506.449 371.741 504.445 374.018 503.153 375.7C502.507 376.54 502.04 377.231 501.725 377.73C501.567 377.98 501.447 378.181 501.363 378.329C501.32 378.403 501.287 378.463 501.261 378.51C501.249 378.533 501.238 378.553 501.229 378.569C501.225 378.577 501.221 378.584 501.218 378.59C501.216 378.593 501.215 378.596 501.213 378.599C501.213 378.6 501.212 378.602 501.211 378.603C501.211 378.603 501.211 378.604 501.21 378.605C501.21 378.605 501.21 378.606 503.871 379.99C506.533 381.374 506.532 381.375 506.532 381.376C506.532 381.376 506.531 381.377 506.531 381.378C506.531 381.379 506.53 381.38 506.53 381.38C506.529 381.382 506.528 381.384 506.527 381.385C506.526 381.388 506.525 381.389 506.525 381.39C506.524 381.392 506.525 381.39 506.527 381.385C506.533 381.375 506.547 381.35 506.568 381.313C506.611 381.238 506.686 381.11 506.797 380.935C507.018 380.585 507.381 380.045 507.911 379.355C508.97 377.977 510.697 376 513.297 373.751L509.372 369.213ZM522.15 361.68C519.323 363.185 516.677 364.593 514.511 365.828C512.415 367.024 510.515 368.197 509.341 369.24L513.327 373.725C513.969 373.154 515.342 372.262 517.484 371.04C519.557 369.857 522.116 368.495 524.969 366.977L522.15 361.68ZM550.484 342.302C549.823 343.534 548.531 345.021 546.571 346.712C544.644 348.375 542.233 350.097 539.526 351.835C534.104 355.317 527.739 358.706 522.15 361.68L524.969 366.977C530.512 364.027 537.102 360.522 542.767 356.884C545.604 355.063 548.27 353.171 550.49 351.255C552.678 349.368 554.604 347.314 555.772 345.137L550.484 342.302ZM537.676 333.021C541.292 334.055 545.508 335.552 548.302 337.49C549.698 338.459 550.447 339.34 550.749 340.048C550.979 340.584 551.06 341.238 550.49 342.291L555.766 345.148C557.136 342.619 557.273 340.045 556.267 337.69C555.333 335.505 553.553 333.83 551.722 332.56C548.061 330.02 543.022 328.309 539.324 327.252L537.676 333.021ZM546.282 328.837C543.618 328.222 541.18 327.659 539.151 327.208L537.849 333.065C539.85 333.51 542.262 334.066 544.933 334.683L546.282 328.837ZM554.831 330.792C551.855 330.123 548.952 329.453 546.282 328.837L544.933 334.683C547.6 335.298 550.519 335.972 553.514 336.646L554.831 330.792ZM594.217 327.552C586.851 328.881 579.373 330.227 572.469 330.969C565.522 331.715 559.444 331.811 554.819 330.79L553.526 336.648C559.129 337.885 565.997 337.698 573.11 336.934C580.266 336.166 587.963 334.777 595.282 333.457L594.217 327.552ZM599.626 326.585C597.843 326.899 596.034 327.225 594.217 327.552L595.282 333.457C597.101 333.129 598.897 332.805 600.665 332.494L599.626 326.585ZM660 304.464C658.636 301.791 658.636 301.791 658.636 301.792C658.636 301.792 658.635 301.792 658.635 301.792C658.634 301.793 658.632 301.794 658.629 301.795C658.624 301.797 658.617 301.801 658.607 301.806C658.586 301.817 658.556 301.832 658.515 301.853C658.433 301.895 658.312 301.956 658.152 302.037C657.831 302.199 657.359 302.438 656.75 302.743C655.534 303.353 653.775 304.229 651.614 305.29C647.29 307.411 641.359 310.267 634.926 313.21C628.488 316.155 621.572 319.175 615.272 321.63C608.916 324.107 603.381 325.931 599.63 326.584L600.661 332.495C605.045 331.731 611.059 329.711 617.451 327.22C623.899 324.708 630.93 321.636 637.422 318.666C643.918 315.695 649.9 312.814 654.257 310.676C656.436 309.607 658.21 308.723 659.44 308.106C660.055 307.798 660.535 307.556 660.861 307.391C661.024 307.308 661.149 307.245 661.234 307.202C661.276 307.18 661.308 307.164 661.33 307.153C661.34 307.147 661.349 307.143 661.354 307.14C661.357 307.139 661.359 307.138 661.361 307.137C661.362 307.137 661.362 307.136 661.363 307.136C661.363 307.136 661.363 307.136 660 304.464ZM652.04 304.179C656.569 304.252 657.486 305.09 657.418 305.023C657.278 304.886 657.097 304.577 657.071 304.16C657.06 303.986 657.078 303.828 657.108 303.693C657.123 303.624 657.141 303.556 657.163 303.489C657.174 303.456 657.187 303.422 657.2 303.387C657.206 303.37 657.213 303.353 657.22 303.335C657.224 303.326 657.227 303.318 657.231 303.309C657.233 303.304 657.235 303.3 657.237 303.295C657.238 303.293 657.239 303.29 657.239 303.289C657.241 303.285 657.242 303.282 660 304.464C662.757 305.645 662.759 305.642 662.76 305.639C662.761 305.637 662.762 305.634 662.763 305.632C662.765 305.627 662.767 305.622 662.769 305.617C662.773 305.608 662.777 305.598 662.781 305.587C662.79 305.567 662.798 305.545 662.807 305.522C662.825 305.476 662.843 305.424 662.862 305.368C662.899 305.255 662.938 305.12 662.971 304.965C663.038 304.657 663.089 304.253 663.059 303.783C662.996 302.774 662.573 301.671 661.611 300.732C659.901 299.061 656.863 298.256 652.137 298.18L652.04 304.179ZM629.856 304.674C641.016 304.366 649.371 304.136 652.04 304.179L652.137 298.18C649.296 298.134 640.736 298.371 629.69 298.676L629.856 304.674ZM546.935 305.366C562.646 306.533 603.773 305.394 629.856 304.674L629.69 298.676C603.392 299.402 562.697 300.521 547.38 299.382L546.935 305.366ZM522.995 299.249C528.008 301.585 534.146 304.422 546.936 305.366L547.378 299.382C535.566 298.51 530.161 295.969 525.529 293.81L522.995 299.249ZM511.448 296.119C516.374 296.178 519.161 297.462 522.995 299.249L525.529 293.81C521.569 291.965 517.8 290.195 511.519 290.12L511.448 296.119ZM493.195 303.084C496.604 300.386 503.529 295.987 511.434 296.119L511.534 290.12C501.527 289.953 493.228 295.406 489.471 298.38L493.195 303.084ZM488.299 301.903C488.678 302.246 488.831 302.396 488.933 302.532L493.733 298.932C493.228 298.258 492.636 297.736 492.32 297.45L488.299 301.903ZM487.719 301.361C487.927 301.569 488.146 301.765 488.299 301.903L492.32 297.45C492.143 297.29 492.042 297.198 491.962 297.118L487.719 301.361ZM384.644 255.765C435.47 265.489 483.093 298.002 488.063 301.656L491.618 296.822C486.438 293.014 437.936 259.852 385.771 249.872L384.644 255.765ZM359.206 251.452C368.441 252.941 377.082 254.431 384.686 255.773L385.729 249.864C378.108 248.52 369.435 247.024 360.161 245.528L359.206 251.452ZM347.228 245.496C348.321 246.479 350.089 247.457 351.909 248.348C353.825 249.287 356.135 250.287 358.555 251.27L360.813 245.711C358.456 244.753 356.288 243.812 354.548 242.96C352.711 242.06 351.643 241.397 351.242 241.036L347.228 245.496ZM359.247 216.418C353.445 220.177 349.045 225.667 346.674 230.863C345.489 233.459 344.744 236.128 344.676 238.584C344.609 241.02 345.215 243.617 347.188 245.459L351.282 241.073C351.017 240.825 350.634 240.195 350.674 238.75C350.713 237.325 351.172 235.46 352.133 233.354C354.053 229.147 357.713 224.561 362.509 221.454L359.247 216.418ZM382.873 216.71C378.598 215.174 374.686 213.748 370.944 213.392C366.967 213.013 363.244 213.829 359.247 216.418L362.509 221.454C365.401 219.58 367.779 219.118 370.375 219.365C373.208 219.635 376.341 220.739 380.846 222.357L382.873 216.71ZM400.467 221.974C393.156 220.4 387.588 218.403 382.873 216.71L380.846 222.357C385.582 224.057 391.473 226.175 399.204 227.84L400.467 221.974ZM454.974 217.054C451.619 218.424 443.147 220.801 432.815 222.253C422.494 223.704 410.652 224.182 400.471 221.975L399.2 227.839C410.363 230.259 423 229.692 433.65 228.195C444.29 226.699 453.282 224.225 457.241 222.609L454.974 217.054ZM419.547 181.621C429.745 186.684 440.065 195.85 446.93 204.15C450.372 208.311 452.788 212.068 453.915 214.812C454.494 216.22 454.605 217.061 454.577 217.428C454.567 217.573 454.544 217.502 454.646 217.348C454.763 217.169 454.915 217.078 454.974 217.054L457.241 222.609C458.214 222.212 459.057 221.558 459.657 220.646C460.241 219.759 460.493 218.785 460.561 217.876C460.691 216.137 460.179 214.271 459.465 212.533C458.008 208.985 455.163 204.69 451.553 200.325C444.312 191.572 433.362 181.781 422.215 176.247L419.547 181.621ZM390.831 186.929C400.472 181.273 409.117 176.406 419.54 181.617L422.223 176.251C408.515 169.397 396.995 176.357 387.795 181.754L390.831 186.929ZM367.814 193.798C372.065 194.782 376.124 194.019 379.899 192.583C383.625 191.165 387.319 188.989 390.831 186.929L387.795 181.754C384.179 183.875 380.933 185.77 377.765 186.975C374.647 188.162 371.859 188.575 369.167 187.952L367.814 193.798ZM339.937 176.558C345.275 180.574 350.407 184.437 355.03 187.48C359.588 190.48 363.978 192.91 367.814 193.798L369.167 187.952C366.453 187.324 362.829 185.43 358.329 182.468C353.896 179.55 348.927 175.813 343.544 171.764L339.937 176.558ZM291.848 150.431C298.985 150.956 306.997 154.398 315.376 159.389C323.711 164.354 332.077 170.645 339.937 176.558L343.544 171.764C335.736 165.889 327.109 159.395 318.446 154.234C309.827 149.1 300.838 145.076 292.288 144.448L291.848 150.431ZM256.652 164.295C262.694 160.38 268.64 156.686 274.58 154.072C280.507 151.463 286.238 150.019 291.848 150.431L292.288 144.448C285.35 143.938 278.6 145.747 272.163 148.58C265.737 151.408 259.433 155.343 253.389 159.259L256.652 164.295ZM253.214 164.172C256.803 166.879 260.436 169.435 262.921 170.914L265.99 165.758C263.792 164.45 260.368 162.053 256.827 159.382L253.214 164.172ZM262.921 170.914C265.427 172.406 268.847 176.126 272.011 181.424C275.124 186.635 277.775 193.019 278.969 199.48L284.87 198.39C283.526 191.119 280.58 184.069 277.163 178.347C273.797 172.712 269.753 167.998 265.99 165.758L262.921 170.914ZM278.969 199.48C280.35 206.95 284.08 216.083 287.077 223.448L292.635 221.187C289.561 213.632 286.114 205.126 284.87 198.39L278.969 199.48ZM287.077 223.448C288.504 226.956 289.764 230.055 290.619 232.537C291.047 233.777 291.345 234.784 291.513 235.56C291.701 236.432 291.643 236.665 291.669 236.539L297.545 237.754C297.787 236.583 297.597 235.31 297.378 234.294C297.137 233.181 296.752 231.917 296.292 230.582C295.372 227.911 294.04 224.641 292.635 221.187L287.077 223.448ZM291.669 236.539C291.89 235.472 292.729 235.356 292.227 235.524C291.848 235.651 291.08 235.781 289.844 235.784C287.423 235.788 283.943 235.304 279.922 234.245C271.868 232.124 262.293 227.867 255.452 221.514L251.369 225.911C259.156 233.142 269.731 237.766 278.394 240.047C282.732 241.19 286.753 241.789 289.854 241.784C291.379 241.781 292.878 241.634 294.132 241.214C295.263 240.835 297.1 239.903 297.545 237.754L291.669 236.539ZM255.452 221.514C244.87 211.688 226.162 190.067 215.45 176.215L210.704 179.885C221.505 193.854 240.442 215.765 251.369 225.911L255.452 221.514ZM181.409 152.583C185.727 161.657 193.167 177.588 212.557 181.004L213.598 175.095C197.562 172.27 191.252 159.305 186.827 150.005L181.409 152.583ZM179.426 148.574C180.02 149.666 180.654 150.996 181.409 152.583L186.827 150.005C186.093 148.463 185.384 146.971 184.697 145.708L179.426 148.574ZM176.39 142.75C177.363 144.673 178.378 146.682 179.437 148.594L184.686 145.688C183.691 143.891 182.727 141.985 181.744 140.042L176.39 142.75ZM167.687 130.398C168.472 130.528 169.72 131.363 171.44 133.845C173.068 136.194 174.647 139.304 176.39 142.75L181.744 140.042C180.059 136.708 178.285 133.188 176.372 130.427C174.55 127.799 172.069 125.045 168.673 124.479L167.687 130.398ZM147.799 139.535C147.739 139.766 147.702 139.647 148.155 139.168C148.554 138.747 149.159 138.227 149.977 137.635C151.605 136.458 153.816 135.182 156.22 134.02C158.618 132.861 161.116 131.86 163.292 131.2C165.605 130.499 167.121 130.32 167.767 130.41L168.593 124.467C166.552 124.183 163.945 124.732 161.551 125.458C159.021 126.226 156.23 127.351 153.609 128.618C150.994 129.882 148.456 131.33 146.46 132.774C145.466 133.493 144.54 134.258 143.795 135.046C143.105 135.776 142.312 136.791 141.991 138.029L147.799 139.535ZM136.662 151.753C140.284 151.235 142.842 149.146 144.562 146.776C146.248 144.451 147.228 141.739 147.799 139.535L141.991 138.029C141.518 139.856 140.78 141.771 139.706 143.252C138.664 144.688 137.416 145.584 135.814 145.813L136.662 151.753ZM70.8066 157.718C98.582 155.285 133.078 152.265 136.662 151.753L135.814 145.813C132.445 146.294 98.246 149.291 70.283 151.741L70.8066 157.718ZM38.4464 160.577C44.4302 160.028 56.7938 158.945 70.8066 157.718L70.283 151.741C56.2783 152.968 43.898 154.052 37.8987 154.602L38.4464 160.577ZM1.90171 175.65C3.90156 177.886 3.90116 177.887 3.90082 177.887C3.9008 177.887 3.90053 177.887 3.90049 177.887C3.90042 177.887 3.90061 177.887 3.90109 177.887C3.90204 177.886 3.90409 177.884 3.90724 177.881C3.91353 177.876 3.9242 177.866 3.93918 177.853C3.96914 177.827 4.0163 177.785 4.08011 177.73C4.20774 177.619 4.40185 177.452 4.65786 177.236C5.17005 176.805 5.92905 176.18 6.89832 175.422C8.83927 173.904 11.6107 171.862 14.9215 169.772C21.6207 165.544 30.2022 161.333 38.4464 160.577L37.8987 154.602C28.2313 155.488 18.6774 160.307 11.7191 164.698C8.20115 166.919 5.26328 169.084 3.20211 170.696C2.17034 171.503 1.35509 172.174 0.793281 172.647C0.5123 172.883 0.294478 173.07 0.144426 173.201C0.069392 173.266 0.0112805 173.317 -0.029333 173.353C-0.0496405 173.371 -0.0655757 173.385 -0.0770668 173.395C-0.0828124 173.4 -0.0874472 173.404 -0.0909623 173.407C-0.0927198 173.409 -0.0941974 173.41 -0.095394 173.411C-0.095992 173.412 -0.0966791 173.413 -0.096978 173.413C-0.0975938 173.413 -0.0981396 173.414 1.90171 175.65ZM-1.55443 166.004C-3.27624 169.629 -3.21752 172.596 -2.3177 174.831C-1.8892 175.894 -1.3132 176.68 -0.82247 177.214C-0.576919 177.481 -0.349605 177.689 -0.166509 177.841C-0.0747193 177.918 0.00674554 177.981 0.074853 178.031C0.108938 178.057 0.139774 178.079 0.166994 178.098C0.180608 178.107 0.193328 178.116 0.20511 178.124C0.211002 178.128 0.21666 178.132 0.222079 178.136C0.224789 178.138 0.227439 178.139 0.230029 178.141C0.231323 178.142 0.233222 178.143 0.233869 178.144C0.23575 178.145 0.237618 178.146 1.90171 175.65C3.5658 173.154 3.56765 173.155 3.56947 173.156C3.57006 173.157 3.57188 173.158 3.57307 173.159C3.57544 173.16 3.57776 173.162 3.58004 173.163C3.58459 173.167 3.58896 173.17 3.59314 173.172C3.6015 173.178 3.60913 173.183 3.61605 173.188C3.62989 173.198 3.64095 173.206 3.64949 173.212C3.66651 173.225 3.67378 173.231 3.67315 173.231C3.67142 173.229 3.64103 173.204 3.59505 173.154C3.50272 173.053 3.3604 172.868 3.24782 172.589C3.06549 172.136 2.75105 170.924 3.86523 168.579L-1.55443 166.004ZM2.62242 158.703C1.20718 160.98 -0.36923 163.509 -1.55443 166.004L3.86523 168.579C4.87818 166.446 6.26215 164.213 7.71809 161.871L2.62242 158.703ZM6.98823 150.028C6.87584 150.871 6.44251 152.05 5.61938 153.629C4.81346 155.175 3.77201 156.854 2.62242 158.703L7.71809 161.871C8.8372 160.071 10.0087 158.189 10.9401 156.402C11.8542 154.648 12.6823 152.721 12.9356 150.821L6.98823 150.028ZM7.05997 149.407C7.02779 149.7 7.00658 149.891 6.98823 150.028L12.9356 150.821C12.9652 150.599 12.9948 150.329 13.024 150.063L7.05997 149.407ZM73.1695 85.4945C42.8829 95.9055 26.4793 109.924 17.5716 122.477C8.66161 135.033 7.45146 145.849 7.05997 149.407L13.024 150.063C13.3669 146.947 14.4074 137.304 22.4648 125.949C30.5245 114.591 45.8051 101.246 75.12 91.1686L73.1695 85.4945ZM222.37 67.4242C196.614 66.0765 135.831 63.9546 73.1695 85.4945L75.12 91.1686C136.645 70.0195 196.466 72.077 222.056 73.416L222.37 67.4242ZM402.626 140.373C368.236 115.765 329.759 97.888 296.665 85.9935C263.637 74.1228 235.705 68.1179 222.369 67.4241L222.057 73.416C234.543 74.0656 261.839 79.8525 294.635 91.6399C327.366 103.403 365.311 121.051 399.134 145.252L402.626 140.373ZM519.016 255.417C492.435 224.274 449.424 173.858 402.626 140.373L399.134 145.252C445.235 178.239 487.785 228.069 514.452 259.313L519.016 255.417ZM543.848 282.532C542.207 281.483 539.226 278.549 534.852 273.701C530.583 268.97 525.263 262.737 519.016 255.417L514.452 259.313C520.679 266.608 526.06 272.914 530.398 277.721C534.63 282.411 538.161 286.017 540.615 287.587L543.848 282.532ZM566.896 286.926C560.352 287.36 556.85 287.573 553.815 287.061C550.95 286.578 548.344 285.407 543.848 282.532L540.615 287.587C545.341 290.609 548.76 292.293 552.817 292.978C556.705 293.634 561.023 293.328 567.293 292.912L566.896 286.926ZM587.687 285.941C578.54 286.153 571.929 286.592 566.896 286.926L567.293 292.912C572.307 292.58 578.813 292.148 587.826 291.939L587.687 285.941ZM130.104 113.236C125.627 114.66 118.272 115.692 110.832 116.725L111.658 122.668C118.863 121.668 126.838 120.571 131.923 118.953L130.104 113.236ZM138.115 104.553C141.078 105.731 141.706 106.664 141.773 106.822C141.778 106.832 141.767 106.809 141.766 106.767C141.764 106.728 141.772 106.719 141.761 106.755C141.732 106.848 141.61 107.123 141.203 107.561C140.368 108.462 138.855 109.501 136.781 110.547C134.758 111.567 132.407 112.492 130.091 113.24L131.936 118.949C134.472 118.13 137.121 117.095 139.482 115.904C141.792 114.74 144.049 113.316 145.602 111.642C147.151 109.971 148.539 107.381 147.289 104.461C146.219 101.96 143.563 100.262 140.332 98.9775L138.115 104.553ZM83.5483 117.886C84.8489 120.589 84.8488 120.589 84.8488 120.589C84.8491 120.589 84.8493 120.589 84.8498 120.589C84.8508 120.588 84.8524 120.587 84.8547 120.586C84.8592 120.584 84.8664 120.581 84.8761 120.576C84.8956 120.567 84.9254 120.552 84.9652 120.533C85.0448 120.495 85.1644 120.438 85.3218 120.364C85.6366 120.215 86.1024 119.996 86.701 119.718C87.8985 119.163 89.6263 118.373 91.7391 117.439C95.9686 115.57 101.723 113.131 107.846 110.845C113.984 108.552 120.413 106.442 126.011 105.198C128.811 104.575 131.332 104.186 133.462 104.083C135.637 103.978 137.169 104.184 138.133 104.56L140.314 98.9705C138.217 98.1522 135.714 97.9669 133.172 98.09C130.584 98.2154 127.703 98.6751 124.71 99.3404C118.721 100.671 111.997 102.889 105.746 105.224C99.4797 107.564 93.6106 110.052 89.3134 111.951C87.163 112.902 85.4018 113.707 84.176 114.276C83.5631 114.56 83.0838 114.785 82.7563 114.94C82.5926 115.018 82.4668 115.077 82.3813 115.118C82.3385 115.139 82.3058 115.154 82.2835 115.165C82.2723 115.17 82.2637 115.174 82.2577 115.177C82.2547 115.179 82.2524 115.18 82.2507 115.181C82.2499 115.181 82.2491 115.181 82.2487 115.182C82.2481 115.182 82.2477 115.182 83.5483 117.886ZM91.6904 120.537C89.6791 121.469 86.7027 121.098 84.9388 120.127C83.9298 119.572 84.2943 119.385 84.3681 120.054C84.4961 121.212 83.4769 121.213 84.7897 120.617L82.3069 115.154C80.3359 116.05 78.0853 117.824 78.4044 120.713C78.6696 123.112 80.6479 124.614 82.0458 125.383C85.0956 127.062 90.1047 127.885 94.2132 125.981L91.6904 120.537ZM110.832 116.725C106.967 117.262 103.118 117.796 99.8402 118.382C96.6554 118.951 93.6619 119.623 91.6904 120.537L94.2132 125.981C95.3912 125.435 97.6621 124.866 100.896 124.288C104.036 123.727 107.759 123.21 111.658 122.668L110.832 116.725Z"
			fill="url(#paint2_linear_17379_145025)" mask="url(#path-5-inside-1_17379_145025)" />
		<path opacity="0.2"
			d="M302.518 100.422C351.476 118.632 408.793 154.306 416.853 160.425C421.779 164.157 420.286 160.276 413.271 152.216C409.091 148.932 405.061 145.798 400.882 142.812C332.669 94.0037 248.037 71.7636 222.215 70.4202C196.542 69.0768 136.24 66.9872 74.1464 88.3317C53.8467 95.347 40.1146 103.855 30.7111 112.363C24.8898 119.528 18.6208 128.633 18.3222 134.752C17.7252 146.246 33.2485 122.214 55.3394 111.02C77.2809 99.8249 150.121 84.7494 166.54 87.2869C182.809 89.8243 190.72 96.2426 206.99 90.8692C223.11 85.645 253.56 82.2119 302.518 100.422Z"
			fill="white" />
		<path opacity="0.2"
			d="M233.112 66.241C233.112 66.241 241.471 34.0003 250.427 24.4475C259.233 14.8947 280.578 3.70001 288.489 2.9537C296.4 2.20739 260.875 17.2829 253.711 26.2386C246.546 35.1944 239.829 67.1366 237.143 68.4799C234.456 69.8233 233.112 66.241 233.112 66.241Z"
			fill="white" />
		<path opacity="0.2"
			d="M203.407 148.634C203.407 148.634 211.02 143.41 218.632 144.306C226.244 145.201 224.752 149.231 222.811 149.828C220.871 150.425 213.557 154.306 214.453 155.202C215.348 156.097 241.469 192.517 246.246 195.353C251.022 198.189 257.888 195.353 261.321 200.428C264.754 205.503 268.933 216.549 272.665 220.28C276.247 224.012 282.516 228.937 282.516 228.937C282.516 228.937 289.233 239.386 275.65 231.176C262.067 222.967 235.051 199.085 227.588 188.189C220.274 177.293 209.975 160.724 206.392 158.336C202.81 156.097 196.541 150.724 203.407 148.634Z"
			fill="white" />
	</g>
	<defs>
		<linearGradient id="paint0_linear_17379_145025" x1="141.031" y1="187.145" x2="146.36" y2="293.612"
			gradientUnits="userSpaceOnUse">
			<stop stop-color="white" />
			<stop offset="1" stop-color="white" stop-opacity="0" />
		</linearGradient>
		<linearGradient id="paint1_linear_17379_145025" x1="336.5" y1="69.5808" x2="336.5" y2="384.643"
			gradientUnits="userSpaceOnUse">
			<stop stop-color="white" />
			<stop offset="1" stop-color="white" stop-opacity="0" />
		</linearGradient>
		<linearGradient id="paint2_linear_17379_145025" x1="336.514" y1="69.6447" x2="336.514" y2="384.791"
			gradientUnits="userSpaceOnUse">
			<stop stop-color="white" />
			<stop offset="1" stop-color="white" stop-opacity="0" />
		</linearGradient>
	</defs>
</svg>